<svg xmlns="http://www.w3.org/2000/svg" width="256" height="256"><path fill-opacity=".016" d="M0 128.004v128.004l128.25-.254 128.25-.254.254-127.75L257.008 0H0v128.004m.485.496c0 70.4.119 99.053.265 63.672.146-35.38.146-92.98 0-128C.604 29.153.485 58.1.485 128.5" fill="#1976D2" fill-rule="evenodd"/><path fill-opacity=".295" d="M4 128v128h248V0H4v128M90 3.5c0 .825.675 1.5 1.5 1.5S93 4.325 93 3.5 92.325 2 91.5 2 90 2.675 90 3.5m119.124 4.851c-.73.879-.494 1.562.825 2.385 1.528.954 1.932.829 2.338-.727.583-2.227-1.698-3.423-3.163-1.658M84 13.059c0 .582.45.781 1 .441s1-.816 1-1.059S85.55 12 85 12s-1 .477-1 1.059m1.832 2.41c-.991 2.174-.906 2.885.509 4.301 1.851 1.85 4.689.887 5.426-1.841.3-1.113.185-1.145-.521-.145C90.191 19.279 87 18.36 87 16.56c0-2.04 1.155-2.548 3.247-1.428 1.549.829 1.887.767 1.54-.285-.847-2.572-4.682-2.171-5.955.622m76.18 4.508c-2.454 4.587 2.23 9.623 5.545 5.961 1.426-1.576 1.606-2.574.855-4.718-1.213-3.463-4.835-4.167-6.4-1.243m.988 3.13c0 1.51.448 1.935 1.582 1.5.87-.334 2.107-.621 2.75-.639 1.276-.035-2.206-2.968-3.523-2.968-.445 0-.809.948-.809 2.107m61-.607c0 .825.661 1.5 1.469 1.5.894 0 1.243-.586.893-1.5-.317-.825-.978-1.5-1.469-1.5-.491 0-.893.675-.893 1.5m-69.902 3.75c1.809 3.487 3.048 4.778 4.012 4.182 1.303-.805-1.908-6.432-3.671-6.432-1.245 0-1.305.395-.341 2.25m-28.904.63c-1.031.637-.997 1.038.17 2.007 1.077.894 1.641.913 2.16.074.958-1.55-.738-3.065-2.33-2.081M213.5 29c.34.55.816 1 1.059 1s.441-.45.441-1-.477-1-1.059-1-.781.45-.441 1M198 34c-3.254 3.254-2.668 8.532 1.4 12.6 5.118 5.118 10.614 4.177 12.186-2.085.819-3.265-2.278-9.304-5.671-11.059-3.782-1.956-5.536-1.835-7.915.544M48 38c0 .55.45 1 1 1s1-.45 1-1-.45-1-1-1-1 .45-1 1m153.75 1.099c-2.105 1.203-2.357 3.348-.301 2.559.969-.372 1.265-.076.893.893-.306.797-.29 2.143.036 2.992.466 1.214 1.022 1.313 2.607.465 2.453-1.313 2.516-2.813.243-5.709-1.338-1.703-2.123-1.974-3.478-1.2M113 40.5c0 .825.6 1.5 1.333 1.5.734 0 1.334-.675 1.334-1.5s-.6-1.5-1.334-1.5c-.733 0-1.333.675-1.333 1.5m-71.85 3.45c.43 1.289 1.801 1.521 1.925.325.041-.399-.465-.905-1.125-1.125-.66-.22-1.02.14-.8.8M178 45.833c0 1.009.675 1.834 1.5 1.834s1.5-.825 1.5-1.834c0-1.008-.675-1.833-1.5-1.833s-1.5.825-1.5 1.833m-130.777.724c-2.855 1.999-2.823 4.53.091 7.269 2.894 2.718 6.818 2.791 9.19.17 1.504-1.662 1.618-2.434.667-4.52-.631-1.384-2.306-2.957-3.724-3.496-3.363-1.279-3.608-1.256-6.224.577m3.027 1.11c-1.513.605-1.666 4.958-.206 5.86 1.563.966 3.698-1.248 3.569-3.703-.118-2.263-1.263-2.997-3.363-2.157m75.673 5.256c-3.046 3.047-3.779 6.821-1.723 8.877.66.66 2.945 1.2 5.077 1.2 2.952 0 4.574-.698 6.8-2.923 1.608-1.608 2.923-3.662 2.923-4.566 0-6.216-7.888-7.777-13.077-2.588m-37.872.516c-.757.912-1.012 2.58-.628 4.111.519 2.067 1.163 2.514 3.261 2.263 1.438-.172 3.107-1.101 3.71-2.063 2.303-3.678-3.561-7.664-6.343-4.311m93.38 1.694c-1.337 2.585-1.385 3.281-.275 3.984 2.561 1.623 4.886.903 5.928-1.837.844-2.222.713-2.955-.716-4-2.538-1.856-3.135-1.632-4.937 1.853m-54.003-.805c-.875 2.279 1.38 6.672 3.425 6.672 3.327 0 4.522-2.498 2.599-5.433-1.794-2.738-5.182-3.435-6.024-1.239M90 55.941c0 1.132.45 2.059 1 2.059s1-.648 1-1.441-.45-1.719-1-2.059c-.55-.34-1 .309-1 1.441m93.607-.359c-.909 2.368-.734 3.614.409 2.908.559-.346.758-1.047.441-1.559-.316-.512-.098-.931.484-.931S186 55.55 186 55c0-1.582-1.724-1.163-2.393.582M78.231 57.55c-2.731 1.914-2.787 2.894-.305 5.376 2.129 2.129 5.58 1.803 6.508-.615.79-2.058-.193-3.341-2.023-2.638-.865.332-1.275 1.24-.946 2.097.481 1.252.318 1.295-.942.249-2.293-1.903-1.914-3.934.611-3.274 1.499.392 2.001.16 1.687-.781-.672-2.018-2.113-2.148-4.59-.414m20.501 1.904c-.935.684-1.468 1.477-1.182 1.762.49.49-10.808 5.443-38.02 16.668-6.584 2.715-12.125 5.401-12.314 5.969-.332.995 9.215-2.754 37.784-14.837 7.425-3.14 13.758-5.318 14.074-4.839.315.479 1.293.072 2.173-.903 1.282-1.421 1.36-2.101.393-3.419-.99-1.349-1.513-1.421-2.908-.401m95.429 1.093c-1.373 3.012-1.477 4.453-.322 4.453.872 0 3.161-4.379 3.161-6.047 0-1.865-1.697-.912-2.839 1.594m-122.425-.949c-.329.329-.336 1.281-.015 2.116.493 1.287.238 1.334-1.677.31-1.309-.701-2.631-.837-3.143-.325C65.728 62.872 68.067 69 69.688 69c.698 0 .996-.66.675-1.496-.461-1.203.035-1.374 2.532-.875 3.594.719 3.581.754 1.592-4.007-1.583-3.787-1.776-4-2.751-3.024M200.345 74.52c13.665 6.921 25.293 12.434 25.84 12.252.874-.292-46.628-23.831-49.548-24.553-.625-.155 10.043 5.381 23.708 12.301m1.642-9.488c-.691 1.668-.971 3.318-.622 3.667.349.349.635.109.635-.532 0-1.923 1.817-1.317 2.5.833.899 2.834 2.198 2.484 4.047-1.09 1.533-2.966 1.519-3.066-.351-2.472-1.417.45-2.093.066-2.478-1.41-.761-2.91-2.279-2.501-3.731 1.004m-144.47.941c-.76 1.23 1.251 7.027 2.438 7.027 1.58 0 1.853-1.336.788-3.85-1.562-3.686-2.401-4.512-3.226-3.177M96 67.679c-1.925.833-3.677 1.686-3.894 1.896-.217.209.37 2.383 1.305 4.831 1.663 4.354 1.766 4.428 4.72 3.398 2.301-.802 2.735-1.321 1.82-2.178-.893-.838-1.318-.806-1.659.124-.726 1.98-3.093 1.454-3.824-.851-.831-2.617 1.192-5.067 2.472-2.995.682 1.103.954.999 1.331-.509.387-1.546.722-1.297 1.821 1.355 1.374 3.316 2.339 3.98 3.367 2.316.651-1.053-2.324-9.111-3.318-8.984-.352.044-2.216.763-4.141 1.597m76.24 2.764-2.073 4.266 3.451 1.646c4.745 2.263 5.077 2.163 7.296-2.187l1.956-3.833-4.279-2.079-4.279-2.078-2.072 4.265M36.704 69.274c-1.422 1.081-1.44 1.455-.158 3.167.8 1.068 1.454 1.438 1.454.823 0-.614.645-1.263 1.433-1.441 1.18-.266 1.208-.628.158-2.049-1.038-1.403-1.576-1.497-2.887-.5m96.12-.4c-1.479.553-1.507.855-.24 2.581 1.293 1.76 1.589 1.801 2.976.414 1.25-1.251 1.296-1.737.24-2.581-.715-.573-2.054-.759-2.976-.414m80.376.326c-2.628 2.628-.032 7.717 3.287 6.443 2.3-.882 1.846-2.883-.487-2.143-2.424.769-2.765-1.62-.5-3.5 1.229-1.02 1.5-.951 1.5.378 0 1.661 1.15 2.138 2.325.964.978-.979-1.318-3.342-3.247-3.342-.923 0-2.218.54-2.878 1.2m-166.95.899c-2.654.987-2.775 1.985-.719 5.96 1.507 2.914 1.578 2.936 4.564 1.392 1.692-.875 2.784-2.095 2.469-2.76-.309-.655-.832-1.947-1.162-2.872-.788-2.21-2.392-2.746-5.152-1.72m128.3 1.556c-.433 1.726-.208 2.946.642 3.485 1.974 1.252 2.636 1.051 3.819-1.161 1.158-2.163.459-4.387-1.08-3.436-.512.316-.931.098-.931-.484 0-2.149-1.805-.974-2.45 1.596m-90.392.967c-2.528 1.104-3.172 1.874-2.647 3.168.381.941 1.142 2.947 1.689 4.46 1.167 3.222 1.59 3.294 6.266 1.065 3.925-1.872 4.244-3.041 2.008-7.365-1.699-3.287-2.497-3.431-7.316-1.328m98.866 2.33c-1.113 2.183-2.024 4.166-2.024 4.407 0 .242 1.796 1.375 3.99 2.519l3.991 2.08 2.009-3.939c1.106-2.167 2.01-4.173 2.01-4.459 0-.286-1.789-1.432-3.976-2.548l-3.975-2.028-2.025 3.968M223.2 74.2c-1.8 1.8-1.447 4.598.728 5.761 3.736 2 7.033-1.297 5.033-5.033-1.163-2.175-3.961-2.528-5.761-.728M48 75c0 .55.45 1 1 1s1-.45 1-1-.45-1-1-1-1 .45-1 1m137.33.417c.299.78-.131 1.677-.957 1.993-1.565.601-.993 2.59.745 2.59.55 0 .751-.403.447-.895-.305-.493.148-1.165 1.006-1.494 1.196-.459 1.412-.133.927 1.395-.348 1.097-.183 1.994.367 1.994 2.024 0 2.376-4.102.476-5.542-2.389-1.809-3.697-1.827-3.011-.041m39.908-.255c-1.503 1.503-1.628 3.838-.207 3.838 1.208 0 2.315-2.462 1.801-4.005-.239-.715-.767-.66-1.594.167M74.267 76.965l-4.233 1.922 1.763 4.15c.969 2.283 2.103 4.15 2.52 4.15.417 0 2.523-.706 4.681-1.57l3.924-1.57-1.677-4.523c-.922-2.488-1.917-4.514-2.211-4.502-.294.012-2.439.887-4.767 1.943m10.983-1.303c-1.745.704-1.599 5.338.168 5.338 3.081 0 4.282-1.117 3.817-3.55-.456-2.385-1.426-2.82-3.985-1.788M234 75.465c0 .255.89.941 1.977 1.523 1.614.863 1.87.778 1.394-.465-.518-1.35-3.371-2.245-3.371-1.058M86.015 76.691c.009.445.452 1.484.985 2.309.835 1.293.971 1.266.985-.191.008-.93-.435-1.969-.985-2.309-.55-.34-.993-.254-.985.191m14.737 1.292c-2.061.924-3.98 1.911-4.263 2.195-.424.424 2.076 7.625 2.991 8.614.149.16 2.127-.451 4.395-1.359 4.572-1.829 4.979-3.232 2.333-8.031l-1.708-3.098-3.748 1.679m66.531 2.372-2.116 4.354 3.451 1.646c4.76 2.27 5.073 2.171 7.368-2.328l2.028-3.974-4.195-2.026c-2.307-1.115-4.245-2.027-4.308-2.027-.062 0-1.065 1.96-2.228 4.355m25.821-.109-1.959 4.254 4.178 2.159 4.177 2.159 1.708-3.159c2.47-4.569 2.236-5.392-2.177-7.643l-3.969-2.025-1.958 4.255M73.59 80.31c-1.67 1.221-1.696 1.435-.247 1.991.957.368 1.381 1.254 1.033 2.161-.723 1.886.631 1.984 3.042.222 2.071-1.514 1.782-5.022-.449-5.451-.829-.16-2.35.325-3.379 1.077m95.96 1.345c-.433 1.726-.208 2.946.642 3.485 1.878 1.191 2.183 1.091 3.601-1.181 1.329-2.128.752-4.414-.862-3.416-.512.316-.931.098-.931-.484 0-2.149-1.805-.974-2.45 1.596m25.156-.882c-1.835 2.027-1.156 3.661 1.92 4.62 1.653.516 2.256.166 2.71-1.571.732-2.799.134-3.457-1.733-1.907-1.197.993-1.353.845-.908-.858.66-2.523.108-2.602-1.989-.284m-131.456.718c-3.724 1.618-3.803 1.942-1.7 6.975 1.188 2.844 1.947 3.549 3.25 3.019.935-.379 2.937-1.138 4.45-1.685 3.222-1.167 3.294-1.59 1.065-6.266-1.871-3.924-2.392-4.074-7.065-2.043m36.75-.299c-1.473.61-1.986 1.229-1.25 1.505.688.258 1.25 1.332 1.25 2.386 0 1.055.45 1.917 1 1.917s1-.436 1-.969c0-.532.629-.727 1.399-.431 2.236.858 2.748-1.209.846-3.418-1.441-1.673-2.181-1.846-4.245-.99m-11 1.59c-1.925.909-3.608 1.7-3.739 1.758-.132.058.499 1.985 1.401 4.283 1.82 4.632 2.705 4.923 7.705 2.539l3.435-1.638-1.617-4.362c-1.789-4.826-2.154-4.958-7.185-2.58M117 83c0 1.253.667 2 1.786 2s1.785-.747 1.785-2c0-1.253-.666-2-1.785-2-1.119 0-1.786.747-1.786 2m61.024 1.952c-1.113 2.183-2.024 4.205-2.024 4.495 0 .546 6.717 3.553 7.937 3.553.614 0 4.063-6.378 4.063-7.514 0-.245-1.789-1.358-3.976-2.474l-3.975-2.028-2.025 3.968m-7.517-1.963c-.35.566.051.734.941.393 1.732-.665 2.049-1.382.611-1.382-.518 0-1.216.445-1.552.989m32.69 2.858-2.006 3.847 4.394 2.135 4.393 2.134 2.081-4.078c1.144-2.243 1.937-4.203 1.761-4.355-.931-.803-6.855-3.53-7.669-3.53-.522 0-1.851 1.731-2.954 3.847m-139.54-2.14c-1.331.343-1.682 1.075-1.263 2.634.318 1.188.585 2.497.592 2.909.022 1.188 2.463.873 4.442-.573 1.582-1.158 1.639-1.597.45-3.5-.747-1.198-1.588-2.125-1.869-2.061-.28.064-1.338.33-2.352.591M53 85.679c-4.666 2.02-4.56 1.753-2.505 6.311 2.033 4.507 2.218 4.574 7.037 2.561 3.943-1.647 4.031-1.959 1.955-6.929-1.695-4.055-1.645-4.04-6.487-1.943m79-.12c0 .857.457 1.276 1.016.931.559-.346.758-1.047.441-1.559-.857-1.387-1.457-1.129-1.457.628M179.5 85c-.34.55-.254 1.007.191 1.015.445.009.134.467-.691 1.019-1.298.869-1.239 1.203.441 2.485 2.531 1.931 2.826 1.884 4.437-.696 1.189-1.903 1.132-2.342-.45-3.5-2.166-1.583-3.102-1.66-3.928-.323M79.25 86.986c-4.213 1.9-5.006 3.274-3.373 5.849.632.997 1.007.744 1.484-1 .531-1.939.806-2.08 1.624-.835.843 1.284.987 1.248 1-.25.008-.963.303-1.75.655-1.75.776 0 3.284 3.203 3.328 4.25.018.412-.643.75-1.468.75s-1.5.408-1.5.906c0 .499-.9.671-2 .384-1.967-.515-2.823 1.083-1.138 2.125 1.27.785 9.15-2.533 9.064-3.817-.041-.604-.828-2.77-1.75-4.813L83.5 85.07l-4.25 1.916m10.006-.957c-1.99.8-2.113 1.191-1.083 3.451.886 1.944 1.655 2.4 3.244 1.922 3.035-.913 3.475-1.64 2.511-4.152-.943-2.458-1.339-2.561-4.672-1.221m115.324.289c-1.688 1.234-1.696 1.423-.119 3 2.21 2.21 3.781 2.125 5.288-.288 1.042-1.668.935-2.129-.693-3-2.407-1.288-2.312-1.295-4.476.288m-40.973 1.264c-.334.87-.597 2.557-.585 3.75.022 2.114.072 2.105 1.978-.332 1.076-1.375 1.966-1.911 1.978-1.191.012.72.475 1.029 1.029.687 1.584-.979 2.359 2.358.945 4.062-.7.843-1.875 1.302-2.612 1.019-.737-.283-1.34-.126-1.34.347 0 .735 2.302 2.076 3.561 2.076.219 0 1.311-1.789 2.427-3.976l2.028-3.975-3.968-2.025c-4.766-2.431-4.681-2.424-5.441-.442m24.649 2.827-2.078 4.279 4.265 2.072 4.266 2.073 1.646-3.451c2.263-4.745 2.163-5.077-2.187-7.296l-3.833-1.956-2.079 4.279m-84.548-1.734c-2.086.865-3.658 1.854-3.495 2.199.163.344.948 2.314 1.743 4.376.795 2.063 2.042 3.75 2.771 3.75 1.036 0 .972-.681-.296-3.133-1.337-2.585-1.385-3.281-.275-3.984 2.172-1.377 3.701-1.019 4.855 1.138 1.164 2.174.456 4.386-1.096 3.426-.521-.322-.708-.973-.415-1.447.293-.474.075-1.144-.484-1.49-.587-.363-1.016.452-1.016 1.931 0 3.691 3.854 3.207 5.281-.663.806-2.185-1.103-7.795-2.629-7.726-.634.028-2.858.759-4.944 1.623m76.799-.686c-.35.566.051.734.941.393 1.732-.665 2.049-1.382.611-1.382-.518 0-1.216.445-1.552.989m33.178 2.545c-.927 1.944-1.685 3.734-1.685 3.98 0 .591 8.115 4.717 8.47 4.306.76-.881 3.53-6.833 3.53-7.585 0-.842-6.289-4.235-7.849-4.235-.429 0-1.539 1.59-2.466 3.534M53 90.5c0 1.833.533 2.5 2 2.5 2.315 0 2.466-.803.608-3.25C53.775 87.336 53 87.559 53 90.5m77.19.526c-6.981 4.256-7.792 13.572-1.711 19.653 2.88 2.88 3.988 3.321 8.344 3.321 6.118 0 10.595-3.234 12.119-8.753 3.133-11.345-8.723-20.336-18.752-14.221m59.546-1.428c-.329.329-.328 1.302.003 2.164.396 1.033.203 1.32-.569.843-2.36-1.458-1.09 1.217 1.33 2.803 2.189 1.434 2.5 1.448 2.5.115 0-.838.45-1.523 1-1.523 1.754 0 1.073-2.891-.934-3.965-2.249-1.203-2.528-1.24-3.33-.437m25.462 2.262c-1.33 2.819-.637 4.357.951 2.111.864-1.222.946-1.18.489.247-.798 2.491 1.429 3.41 3.014 1.244 1.905-2.606 1.673-3.804-.972-5.029-1.996-.925-2.462-.734-3.482 1.427m-147.152-.283c-1.9.824-3.606 1.65-3.792 1.836-.571.571 2.914 8.587 3.732 8.587C69.66 102 76 98.921 76 98.109c0-1.623-3.025-8.109-3.763-8.07-.406.022-2.291.714-4.191 1.538m25.709 1.269C89.984 94.512 89.213 96.234 91 99c.792 1.226.972 1.111.985-.633.02-2.834 4.029-3.988 5.765-1.66.688.921 1.25 2.023 1.25 2.449 0 1.244-4.03 3.046-5.527 2.472-.863-.331-1.177-.02-.847.84.438 1.142 1.13 1.118 4.199-.143 2.021-.831 4.012-1.828 4.424-2.216.799-.754-2.144-9.175-3.151-9.013-.329.053-2.283.84-4.343 1.75m79.2 2.243c-1.152 2.258-1.951 4.229-1.775 4.381.881.76 6.833 3.53 7.585 3.53.737 0 4.235-6.206 4.235-7.514 0-.245-1.789-1.358-3.976-2.474l-3.975-2.028-2.094 4.105m25.73.445c-.927 1.944-1.685 3.734-1.685 3.98 0 .245 1.789 1.358 3.976 2.474l3.975 2.028 2.094-4.105c1.152-2.258 1.951-4.229 1.775-4.381-.881-.76-6.833-3.53-7.585-3.53-.476 0-1.623 1.59-2.55 3.534m-128.955-1.8c-.224.421.188 1.891.916 3.266l1.325 2.5.014-2.691c.015-2.624-1.439-4.607-2.255-3.075m-12.506 2.351-4.276 1.855 1.578 3.78c.868 2.079 1.892 4.066 2.276 4.415.384.349 2.598-.19 4.919-1.197l4.221-1.832-1.564-3.803c-.86-2.092-1.859-4.089-2.221-4.438-.361-.349-2.581.2-4.933 1.22m9.261-1.06c-.408.659-.346 1.486.137 1.837s.878 1.201.878 1.888c0 .688.45 1.23 1 1.205 1.12-.051.767-3.995-.474-5.292-.44-.461-1.134-.298-1.541.362m133.086 1.177c-1.486 2.122-1.479 2.392.101 3.548 2.468 1.804 4.1 1.544 5.385-.857.816-1.524.826-2.41.036-3.2-.601-.601-1.093-.723-1.093-.271 0 .453-.634.296-1.41-.347-1.119-.929-1.742-.696-3.019 1.127m-24.308 1.121c-.866 1.901-.722 2.534.795 3.481 1.538.961 2.119.782 3.398-1.045 2.088-2.981 1.941-4.096-.457-3.469-1.101.288-1.75.115-1.441-.383.308-.499.156-.907-.338-.907-.495 0-1.375 1.045-1.957 2.323m-45.594-.573c-.564.942.802 10.054 1.631 10.883.337.338 1.308.348 2.157.022 2.205-.846 2.173-10.199-.039-11.048-2.104-.807-3.205-.765-3.749.143m8.081.327c-1.945 1.136-2.313 3.457-.706 4.45.574.355 1.785.044 2.692-.691 1.407-1.141 1.519-1.117.767.164-.484.825-1.696 2.088-2.692 2.807-3.348 2.416-2.209 4.193 2.689 4.193 3.333 0 4.5-.389 4.5-1.5 0-.825-.466-1.5-1.035-1.5-.696 0-.677-.669.055-2.038 1.132-2.114.483-5.962-1.006-5.962-.468 0-1.45-.213-2.182-.473-.733-.26-2.119-.013-3.082.55m71.068 3.948-1.682 4.004 4.029 2.055c2.216 1.131 4.153 1.912 4.305 1.736.76-.881 3.53-6.833 3.53-7.585 0-.828-6.298-4.246-7.784-4.225-.394.006-1.473 1.812-2.398 4.015M58.921 99.75c-.048 1.056-.28 1.252-.585.494-.279-.691-.901-1.013-1.384-.715-1.01.625.947 5.471 2.209 5.471.461 0 .839-.45.839-1s.675-1 1.5-1 1.486-.338 1.468-.75c-.044-1.047-2.552-4.25-3.328-4.25-.352 0-.676.787-.719 1.75M83.175 99c.275.825-.214 2.048-1.087 2.718-1.432 1.099-1.416 1.222.162 1.25.963.018 1.75.665 1.75 1.438 0 1.14.464 1.187 2.45.25 1.393-.657 2.074-1.532 1.578-2.028-.479-.479-.605-1.566-.28-2.414.398-1.038.195-1.297-.622-.792-.667.413-1.942.149-2.832-.586-1.372-1.132-1.543-1.107-1.119.164m24.075.288c-1.237.56-2.25 1.413-2.25 1.897 0 2.394 3.086 7.815 4.449 7.815 1.252 0 1.165-.386-.449-2-2.419-2.419-2.517-3.611-.397-4.798.881-.493 1.444-1.579 1.25-2.414-.277-1.191-.836-1.299-2.603-.5m-75.583.379c-1.151 1.15-.729 2.333.833 2.333.825 0 1.5-.675 1.5-1.5 0-1.562-1.183-1.984-2.333-.833M166 100.941c0 2.415.556 2.658 1.349.591.31-.807.133-1.734-.393-2.059-.526-.325-.956.336-.956 1.468m-93.793 1.077-4.29 1.921 1.567 3.031c1.876 3.627 2.965 3.956 2.134.644-.475-1.891-.134-2.51 1.642-2.984 2.11-.564 4.74 1.411 4.74 3.561 0 1.626-1.725.749-2.834-1.441l-1.14-2.25.237 2.49c.24 2.524 2.547 3.681 5.263 2.638 1.197-.459 1.175-1.109-.151-4.334-2.194-5.334-2.38-5.419-7.168-3.276m112.513.666c-.247 1.293-.018 2 .536 1.658.532-.329 1.36.022 1.84.78.633.998.878 1.033.889.128.008-.687.694-1.25 1.523-1.25 1.198 0 1.279-.368.394-1.786-1.586-2.54-4.66-2.261-5.182.47m24.916-1.177c-.99 2.578-.763 3.493.864 3.493.825 0 1.5.45 1.5 1 0 2.033 2.082.915 3.053-1.639 1.171-3.08 1.213-3.005-2.17-3.854-1.923-.483-2.78-.219-3.247 1M98.25 103.196c-4.495 1.988-4.601 2.161-3.25 5.304.753 1.752.868 1.779.93.218.069-1.75 3.846-3.909 5.32-3.042.412.243.75 1.315.75 2.383 0 1.295.688 1.941 2.067 1.941 1.683 0 1.939-.419 1.376-2.25-.381-1.237-1.199-3.192-1.818-4.342-1.119-2.082-1.147-2.083-5.375-.212m69.774 1.756C165.718 109.474 165.611 110 167 110c.55 0 1-.675 1-1.5s.477-1.5 1.059-1.5.8-.419.484-.931c-.97-1.568 1.292-2.228 3.531-1.03 1.396.748 1.944 1.783 1.614 3.047-.651 2.488.942 2.475 2.277-.02 1.478-2.761 1.446-2.816-2.941-5.054l-3.975-2.028-2.025 3.968m25.661.582c-1.966 4.123-2.019 4.466-.685 4.466.55 0 1-.702 1-1.559s.399-1.312.887-1.011c.488.302.825-.186.75-1.083-.075-.898.442-1.836 1.15-2.085.914-.322 1.144.333.794 2.265-.271 1.495-.175 2.401.213 2.012.388-.388.706-1.118.706-1.622s.45-.805 1-.667.893 1.037.762 2c-.328 2.412 1.427 2.2 2.784-.336 1.282-2.396 1.432-2.162-2.746-4.287-4.368-2.221-4.691-2.128-6.615 1.907M60.5 106.945c-4.64 2.196-4.645 2.189 2.25 2.589 5.264.306 5.77-.016 4.643-2.952-.778-2.027-1.976-1.963-6.893.363m167.561-.518c-.802.966-.671 1.652.503 2.626 1.322 1.097 1.741 1.078 2.497-.117 1.259-1.991 1.163-2.636-.488-3.27-.785-.301-1.915.041-2.512.761M87.25 107.584c-1.787.782-3.25 1.637-3.25 1.901 0 .263 2.235.429 4.966.367 4.526-.102 4.877-.277 3.964-1.982-1.159-2.167-1.356-2.177-5.68-.286m92.347.023c-.328.856-.596 1.632-.596 1.725.001.092 1.894.298 4.206.457 4.666.321 4.676.168.14-2.137-2.843-1.445-3.211-1.45-3.75-.045M98 107.378c0 .207.685.946 1.523 1.641 1.273 1.057 1.42.995.893-.378-.538-1.401-2.416-2.384-2.416-1.263m107.667.289c-1.456 1.455-.604 3.129 1.333 2.623 1.118-.293 2-.031 2 .593 0 .615.702 1.117 1.559 1.117.904 0 1.266.475.861 1.13-.424.685-.152.948.691.667 2.735-.911 1.949-3.398-1.61-5.095-4.085-1.948-3.95-1.919-4.834-1.035m-135 8c-.367.366-.667 1.131-.667 1.7 0 .626.466.567 1.183-.15.651-.651.951-1.416.667-1.7-.284-.284-.817-.217-1.183.15m9 0c-.367.366-.667 1.131-.667 1.7 0 .626.466.567 1.183-.15.651-.651.951-1.416.667-1.7-.284-.284-.817-.217-1.183.15m8.897 1.04c-.542 1.425-.428 1.54.56.56.684-.679.991-1.486.683-1.793-.308-.308-.867.247-1.243 1.233m79.103-1.04c-.367.366-.667 1.131-.667 1.7 0 .626.466.567 1.183-.15.651-.651.951-1.416.667-1.7-.284-.284-.817-.217-1.183.15m25.792.4c-.363.586-.445 1.281-.183 1.543s.743-.218 1.069-1.067c.676-1.762.1-2.072-.886-.476M202.5 118c-.34.55-.141 1 .441 1s1.059-.45 1.059-1-.198-1-.441-1-.719.45-1.059 1m6.167 4.667c-.367.366-.667 1.131-.667 1.7 0 .626.466.567 1.183-.15.651-.651.951-1.416.667-1.7-.284-.284-.817-.217-1.183.15m-163.103 9.04c-.542 1.425-.428 1.54.56.56.684-.679.991-1.486.683-1.793-.308-.308-.867.247-1.243 1.233m100.817.203c-4.623 2.819-5.381 6.377-5.381 25.271 0 23.032 1.778 26.819 12.588 26.819 9.654 0 12.397-4.599 12.406-20.8l.006-9.3-5.686.3-5.685.3.003 3.5c.003 2.369.467 3.5 1.436 3.5 1.06 0 1.51 1.645 1.732 6.337.327 6.901-.716 9.163-4.222 9.163-4.231 0-4.578-1.488-4.578-19.629 0-18.166.527-20.371 4.871-20.371 2.817 0 4.129 2.128 4.129 6.7v4.3h8.28l-.559-5.411c-.636-6.161-2.615-9.764-6.282-11.435-3.781-1.723-9.54-1.39-13.058.756m30 0c-4.623 2.819-5.381 6.377-5.381 25.271C171 180.28 172.762 184 183.707 184c4.399 0 5.797-.478 8.527-2.916l3.266-2.916.309-19.52c.257-16.242.044-20.032-1.267-22.567-3.037-5.873-11.996-7.931-18.161-4.171m22.734-.981c-1.217.752-.507 4.071.87 4.071.423 0 1.23-.562 1.792-1.25 1.28-1.565-.922-3.897-2.662-2.821M210.5 131c-.34.55-.141 1 .441 1s1.059-.45 1.059-1-.198-1-.441-1-.719.45-1.059 1M63 157.5V184l7.75-.056c10.291-.075 14.286-1.515 16.498-5.944 3.223-6.451 1.786-18.841-2.447-21.107-1.96-1.049-1.956-1.099.292-3.492 4.686-4.989 3.402-18.46-2.038-21.371-1.058-.567-6.003-1.03-10.989-1.03H63v26.5m31.296-.25.204 26.25 3.75.31 3.75.311V131h-7.907l.203 26.25m14.704.198V184h7v-19.167c0-10.541.233-18.933.518-18.648.438.438 2.921 9.283 9.421 33.565 1.096 4.093 1.284 4.25 5.1 4.25H135v-53h-7v15.167c0 8.341-.252 14.914-.56 14.606-.308-.308-2.26-7.02-4.337-14.917l-3.776-14.356-5.163-.302-5.164-.303v26.553m-85.617-22.587C13.151 139.638 13.491 150 23.878 150c13.102 0 20.022-15.14 7.587-16.597-2.642-.31-5.339.177-8.082 1.458m1.381 3.389c-1.485 1.146-2.171 3.484-1.879 6.4.14 1.401 6.877 1.545 7.729.165.615-.994-2.572-7.815-3.65-7.815-.32 0-1.31.563-2.2 1.25m155.436-.05c-.842.842-1.2 6.444-1.2 18.8 0 18.468.345 20 4.5 20s4.5-1.532 4.5-20-.345-20-4.5-20c-1.155 0-2.64.54-3.3 1.2m-108.994 7.05.294 7.25 3-.347c4.434-.513 5.5-1.885 5.5-7.075 0-5.548-1.241-7.078-5.744-7.078h-3.344l.294 7.25m139.461-6.583c-.367.366-.667 1.131-.667 1.7 0 .626.466.567 1.183-.15.651-.651.951-1.416.667-1.7-.284-.285-.817-.217-1.183.15m25.802 1.74c-3.055 4.662.611 10.543 5.766 9.249 3.537-.888 4.522-5.162 1.978-8.583-2.636-3.545-5.686-3.807-7.744-.666M45 140c0 .55.45 1 1 1s1-.45 1-1-.45-1-1-1-1 .45-1 1m195 1.615c-1.375.725-2.455 1.784-2.4 2.352.257 2.658.505 3.033 2.007 3.033 1.028 0 1.397-.548 1.022-1.523-.471-1.229-.215-1.326 1.328-.5 1.051.563 2.166 1.023 2.477 1.023 1.019 0 .594-2.584-.684-4.161-1.065-1.315-1.62-1.348-3.75-.224m-194.667 6.841c0 .801.375 1.224.834.941.458-.283.833-.938.833-1.456s-.375-.941-.833-.941c-.459 0-.834.655-.834 1.456M210 148c0 .55.45 1 1 1s1-.45 1-1-.45-1-1-1-1 .45-1 1m-12.436 1.707c-.542 1.425-.428 1.54.56.56.684-.679.991-1.486.683-1.793-.308-.308-.867.247-1.243 1.233m-183.201 2.789c-.957 2.494.464 7.644 3.286 11.908 2.303 3.48 2.425 4.069 1.05 5.074-1.646 1.203-1.087 2.838 1.126 3.297.91.189 1.124-.36.683-1.75-.762-2.4.059-2.601 2.135-.525 1.863 1.864 4.252 1.938 4.936.154.285-.741-.213-3.328-1.104-5.75-.892-2.422-1.664-5.068-1.715-5.879-.106-1.679-2.969-4.36-7.028-6.58-2.487-1.361-2.829-1.356-3.369.051m212.276 2.198c-1.126 1.126-.685 2.306.861 2.306.825 0 1.5-.423 1.5-.941 0-1.261-1.562-2.164-2.361-1.365M210.5 156c-.34.55-.141 1 .441 1s1.059-.45 1.059-1-.198-1-.441-1-.719.45-1.059 1M45 157.059c0 .582.45.781 1 .441s1-.816 1-1.059-.45-.441-1-.441-1 .477-1 1.059m26.21 11.191.29 8.25 3.125.304c4.501.438 6.375-1.896 6.375-7.941 0-7.108-1.203-8.863-6.076-8.863h-4.005l.291 8.25m139.249-4.183c-.363.586-.445 1.281-.183 1.543s.743-.218 1.069-1.067c.676-1.762.1-2.072-.886-.476M45.5 165c.34.55.816 1 1.059 1s.441-.45.441-1-.477-1-1.059-1-.781.45-.441 1m-12.136 4.493c-.346.903-.15 2.121.436 2.707 1.524 1.524 4.41.131 4.012-1.935-.443-2.302-3.647-2.858-4.448-.772m12.2 4.214c-.542 1.425-.428 1.54.56.56.684-.679.991-1.486.683-1.793-.308-.308-.867.247-1.243 1.233M210 173c0 .55.45 1 1 1s1-.45 1-1-.45-1-1-1-1 .45-1 1m-7.417 7.866c-.431.697-.513 1.537-.183 1.867.895.895 1.871-.421 1.387-1.871-.338-1.016-.574-1.016-1.204.004m8.084-.199c-.367.366-.667 1.131-.667 1.7 0 .626.466.567 1.183-.15.651-.651.951-1.416.667-1.7-.284-.285-.817-.217-1.183.15M45 182.059c0 .582.45.781 1 .441s1-.816 1-1.059-.45-.441-1-.441-1 .477-1 1.059M89 185c0 .55.45 1 1 1s1-.45 1-1-.45-1-1-1-1 .45-1 1m-42 5c0 .55.45 1 1 1s1-.45 1-1-.45-1-1-1-1 .45-1 1m149 3.559c0 .857.45 1.281 1 .941.55-.34 1-1.041 1-1.559s-.45-.941-1-.941-1 .702-1 1.559m-114 1.824c0 .761.843 1.604 1.873 1.874 1.441.376 1.76.057 1.384-1.384-.564-2.157-3.257-2.562-3.257-.49m-12.457 1.548c-.317.512-.118 1.213.441 1.559.559.345 1.016-.074 1.016-.931 0-1.757-.6-2.015-1.457-.628M88 197c0 .55.45 1 1 1s1-.45 1-1-.45-1-1-1-1 .45-1 1m35.5 0c.34.55.816 1 1.059 1s.441-.45.441-1-.477-1-1.059-1-.781.45-.441 1m26 0c-.34.55-.141 1 .441 1s1.059-.45 1.059-1-.198-1-.441-1-.719.45-1.059 1m9 0c-.34.55-.141 1 .441 1s1.059-.45 1.059-1-.198-1-.441-1-.719.45-1.059 1m8.5 0c0 .55.45 1 1 1s1-.45 1-1-.45-1-1-1-1 .45-1 1m-38.5 3c-.34.55-.141 1 .441 1s1.059-.45 1.059-1-.198-1-.441-1-.719.45-1.059 1m83 3.945c-5.701 2.334-7.757 9.777-3.353 12.134 2.862 1.531 9.222-.34 11.317-3.331 4.362-6.228-.669-11.789-7.964-8.803m-154.845 2.884c-.924 1.021-1.655 3.494-1.655 5.6 0 2.955.735 4.506 3.4 7.171 5.723 5.723 11.6 3.682 11.6-4.029 0-2.955-.735-4.506-3.4-7.171-3.815-3.815-7.402-4.381-9.945-1.571m156.899-.271c-1.511 1.125-1.679 1.717-.75 2.646.658.658 1.196 1.642 1.196 2.187 0 .545-.61.157-1.355-.862-.83-1.135-1.993-1.609-3-1.223-1.771.68-2.297 3.694-.645 3.694.55 0 1 .675 1 1.5 0 1.997.372 1.922 5.02-1.013 4.497-2.838 4.604-3.138 2.208-6.183-1.553-1.974-1.925-2.049-3.674-.746m-90.001 1.357c-.311.503-.051 1.086.577 1.295.822.274.764.987-.206 2.54-1.913 3.063-.371 3.974 2.765 1.633 4.913-3.668 6-7.892 1.397-5.429-1.386.742-2.086.769-2.086.081 0-1.28-1.679-1.363-2.447-.12M134.5 208c-.34.55-.141 1 .441 1s1.059-.45 1.059-1-.198-1-.441-1-.719.45-1.059 1m-75.332 4.875c-1.042.661-.781 1.439 1.199 3.576 3.239 3.494 5.198 2.543 3.104-1.508-1.62-3.131-2.192-3.406-4.303-2.068m74.849 3.411c-1.366.691-2.932 2.532-3.48 4.09-.86 2.444-.665 3.102 1.42 4.79 2.869 2.324 6.667 1.784 9.293-1.319 2.272-2.685 2.209-4.388-.25-6.847-2.318-2.318-3.562-2.445-6.983-.714m33.107.065c-.73.879-.494 1.562.825 2.385 1.528.954 1.932.829 2.338-.727.583-2.227-1.698-3.423-3.163-1.658m-31.874 3.009c-2.315 1.147-3.022 2.64-1.25 2.64.55 0 .947.338.882.75-.337 2.129.386 2.196 3.073.282 1.808-1.287 2.737-2.672 2.393-3.568-.641-1.67-1.885-1.695-5.098-.104m-6.612 30.14c.317.825.115 1.5-.448 1.5-.563 0-1.203-.54-1.424-1.201-.234-.702-.647-.801-.994-.239-.327.529.007 1.785.743 2.792 1.793 2.452 5.491 1.324 5.47-1.669-.013-1.776-.196-1.903-.985-.683-.828 1.282-.972 1.246-.985-.25-.008-.963-.451-1.75-.984-1.75-.532 0-.709.675-.393 1.5m5.362.559c0 .582.45.781 1 .441s1-.816 1-1.059-.45-.441-1-.441-1 .477-1 1.059m-46.921 1.524c.048 1.165.285 1.402.604.605.289-.722.253-1.585-.079-1.917-.332-.332-.568.258-.525 1.312m15.079.417c0 1.375.227 1.938.504 1.25.278-.687.278-1.812 0-2.5-.277-.687-.504-.125-.504 1.25m3.053-.605c.709.767 1.675 1.161 2.146.875.471-.286.246-.907-.5-1.38-2.11-1.337-3.075-1.041-1.646.505m14.248-.328c-.363.586-.445 1.281-.183 1.543s.743-.218 1.069-1.067c.676-1.762.1-2.072-.886-.476m19.62.516c.048 1.165.285 1.402.604.605.289-.722.253-1.585-.079-1.917-.332-.332-.568.258-.525 1.312m7.38-.516c-.363.586-.389 1.336-.059 1.666.33.33.6.027.6-.673 0-.741.65-1.025 1.552-.678.89.341 1.291.173.941-.393-.8-1.295-2.208-1.259-3.034.078m11 0c-1.026 1.66-.105 1.89 1.33.332.71-.769.849-1.399.309-1.399-.539 0-1.277.48-1.639 1.067m5.874.584c0 .984.337 1.038 1.334.211.733-.609 1.333-1.202 1.333-1.318 0-.116-.6-.211-1.333-.211a1.33 1.33 0 0 0-1.334 1.318m3.746-.068c.048 1.165.285 1.402.604.605.289-.722.253-1.585-.079-1.917-.332-.332-.568.258-.525 1.312m2 0c.048 1.165.285 1.402.604.605.289-.722.253-1.585-.079-1.917-.332-.332-.568.258-.525 1.312M110.5 252c.34.55.816 1 1.059 1s.441-.45.441-1-.477-1-1.059-1-.781.45-.441 1m41.5-.167c0 .459.655.834 1.456.834.801 0 1.224-.375.941-.834-.283-.458-.938-.833-1.456-.833s-.941.375-.941.833" fill="#1976D2" fill-rule="evenodd"/><path fill-opacity=".152" d="M4 128v128h248V0H4v128M89.352 3.693c-.109 1.779.254 2.289 1.331 1.875C91.497 5.256 92.48 5 92.868 5c.387 0 .703-.844.703-1.875 0-3.007-4.035-2.463-4.219.568m36.187 8.875c-.867 13.975-.88 14.311-.695 18.182.141 2.937.455 3.25 3.27 3.25 3.083 0 3.108-.042 2.56-4.25-.304-2.337-1.097-8.975-1.762-14.75s-1.543-11.144-1.952-11.932c-.408-.787-1.048 3.488-1.421 9.5m26.704 4.682c-7.454 21.953-8.461 26.227-7.245 30.743 1.405 5.217-.085 10.898-4.04 15.402-1.627 1.853-2.958 4.097-2.958 4.987 0 .89-.45 1.618-1 1.618s-1-.675-1-1.5c0-1.698-1.566-2.011-2.5-.5-.34.55-2.412 1-4.605 1h-3.987l.236 4.567c.211 4.075.459 4.507 2.296 4.014 1.133-.305 2.623-.56 3.31-.567.688-.008 1.282-1.251 1.32-2.764.062-2.413.171-2.505.893-.75.755 1.836.881 1.856 1.537.25.992-2.43 2.299-2.186 2.68.5.242 1.702 1.081 2.324 3.443 2.554 2.566.25 3.217-.108 3.647-2 5.808-25.548 7.756-34.277 8.718-39.06 1.129-5.621 1.207-5.721 3.307-4.25 5.176 3.626 12.286.062 13.362-6.698.509-3.2.175-4.117-2.457-6.75-2.387-2.387-3.918-3.046-7.076-3.046h-4.03l.592-5c.326-2.75.395-5 .154-5-.241 0-2.31 5.512-4.597 12.25m56.159-9.822c-.84 1.78-.631 2.476 1.15 3.819 2.078 1.567 2.231 1.525 3.35-.932.645-1.415 1.044-2.628.885-2.694-.158-.067-1.203-.627-2.322-1.245-1.715-.947-2.198-.781-3.063 1.052M96.744 8.44c.256 1.342 1.279 3.176 2.273 4.075 1.624 1.47 1.602 1.223-.21-2.44-2.331-4.712-2.709-5.011-2.063-1.635M160 9.941c0 .518.45 1.219 1 1.559.55.34 1-.084 1-.941S161.55 9 161 9s-1 .423-1 .941m-75.602 1.672c-.774.319-.664 1.784.369 4.921 1.613 4.9 3.754 5.758 6.578 2.637 2.076-2.294 2.086-3.597.042-5.641-1.442-1.442-1.854-1.454-3.894-.117-2.124 1.391-2.246 1.36-1.771-.459.532-2.035.481-2.087-1.324-1.341M87 16.5c0 .833.889 1.5 2 1.5 2.384 0 2.653-1.536.418-2.393-2.235-.858-2.418-.79-2.418.893m91.268 8.75C168.085 40.32 148 75.218 148 77.843c0 .395 1.333 1.222 2.962 1.836 2.205.833 3.182.825 3.827-.03 3.026-4.013 20.112-37.604 24.654-48.47C183.869 20.591 185.99 15 185.582 15c-.213 0-3.505 4.612-7.314 10.25m-77.112-2.913c-1.133 3.839-.934 5.415 2.241 17.689 1.916 7.411 5.159 18.874 7.205 25.474 2.047 6.6 4.184 13.837 4.748 16.083.869 3.453 1.424 4.084 3.599 4.084 2.437 0 2.566-.265 2.474-5.084-.144-7.51-2.319-13.558-6.574-18.274-4.508-4.996-5.301-7.643-4.529-15.118.588-5.704.467-6.168-6.752-25.879l-1.168-3.189-1.244 4.214m-32.124-3.074c-.018.42 3.134 7.083 7.003 14.807 6.417 12.809 7.229 13.984 9.25 13.374 1.218-.368 2.623-1.048 3.121-1.512.522-.487-2.862-5.825-8-12.62C69.257 18.568 69.07 18.338 69.032 19.263M98.5 20c-.34.55-.141 1 .441 1S100 20.55 100 20s-.198-1-.441-1-.719.45-1.059 1m110.09.854c-.993 1.607.553 4.265 2.286 3.931 2.13-.41 2.104-4.165-.033-4.577-.911-.175-1.925.116-2.253.646M223 22.282c0 1.467-.468 1.704-2.25 1.136-6.971-2.223-7.595 1.157-1.322 7.167 4.223 4.047 8.113 5.54 9.865 3.788.793-.792-1.656-5.599-3.727-7.318-1.993-1.655-2.037-3.45-.066-2.693 1.06.406 1.5-.086 1.5-1.679 0-1.588-.591-2.254-2-2.254-1.28 0-2 .666-2 1.853M163 23c0 1.32.543 1.671 2 1.29 1.1-.288 2-.868 2-1.29 0-.422-.9-1.002-2-1.29-1.457-.381-2-.03-2 1.29m-67 1c0 .55.45 1 1 1s1-.45 1-1-.45-1-1-1-1 .45-1 1m116.57 3.887c-.301.487.07 1.399.824 2.025 1.048.869 1.502.801 1.92-.289.855-2.227-1.514-3.727-2.744-1.736m-14.997 5.683c-2.142 2.142-2.855 5.493-1.784 8.389.732 1.977.427 2.812-1.694 4.636l-2.586 2.224 2.817 1.284c2.349 1.07 2.962 1.049 3.688-.126.534-.863.409-1.994-.321-2.917-.656-.829.105-.506 1.692.717 3.617 2.787 8.692 2.9 11.095.245 1.371-1.515 1.655-2.975 1.216-6.25-1.012-7.551-9.718-12.607-14.123-8.202M49.25 34.973c-4.897 2.223-5.735 5.029-1.5 5.023 2.913-.004 9.25-3.343 9.25-4.874 0-.5-.712-1.181-1.582-1.515-1.93-.741-1.143-.915-6.168 1.366m-10.583.694C37.516 36.817 37.938 38 39.5 38c.825 0 1.5-.675 1.5-1.5 0-1.562-1.183-1.984-2.333-.833m19.867 1.278c-.965 1.561.305 3.055 2.598 3.055 1.375 0 1.908-.552 1.68-1.739-.384-1.992-3.305-2.891-4.278-1.316M126 38.5c0 .833.889 1.5 2 1.5s2-.667 2-1.5-.889-1.5-2-1.5-2 .667-2 1.5m-13.637 1.996c.083 1.354.635 2.058 1.387 1.769 1.648-.632 1.577.202-.335 3.9-2.302 4.451-.455 5.581 3.577 2.188 3.291-2.769 6.668-9.026 5.502-10.192-.343-.343-1.944.135-3.559 1.061-1.614.927-2.935 1.308-2.935.848 0-.46-.849-1.059-1.887-1.33-1.459-.382-1.855.016-1.75 1.756m88.304-.829c-1.217 1.216-.69 2.556.782 1.991 1.018-.391 1.265-.076.83 1.057-.46 1.199-.254 1.393.801.757 1.212-.731 1.219-.608.048.836-1.206 1.486-1.122 1.692.691 1.692 2.849 0 3.657-1.742 2.13-4.595-1.228-2.296-3.859-3.161-5.282-1.738m-158.78 3.22c-1.011.384-1.384 1.252-1 2.326.406 1.134 1.069 1.432 1.962.881 1.898-1.174 1.058-3.976-.962-3.207m134.869 3.323c-.319 2.174-.077 2.743.993 2.333.778-.299 2.128-.543 2.999-.543.872 0 1.301-.284.954-.631-.347-.348-.222-1.398.279-2.334.759-1.418.434-1.702-1.946-1.702-2.383 0-2.927.478-3.279 2.877M124 45c0 .55.45 1 1 1s1-.45 1-1-.45-1-1-1-1 .45-1 1m-77.25 1.08c-2.332 1.358-2.246 6.161.149 8.329 2.275 2.058 7.431 2.392 9.566.62C58.604 53.254 58.38 49.38 56 47c-2.148-2.148-6.413-2.572-9.25-.92m3.372 2.198c-1.608 1.608-1.383 4.408.41 5.096 1.024.393 1.853-.257 2.5-1.958 1.219-3.207 1.231-3.101-.41-3.731-.758-.291-1.883-.024-2.5.593M68 59.063C53.975 65.035 41.712 69.94 40.75 69.961c-1.954.044-2.394-1.58-.591-2.181.637-.212-1.7-1.362-5.194-2.555-3.495-1.193-6.515-2.008-6.712-1.811-.197.197 1.23 1.34 3.172 2.54 1.941 1.199 3.467 2.488 3.391 2.864-.076.375.398 1.986 1.054 3.58 1.074 2.61 1.316 2.73 2.43 1.207 1.057-1.446 2.374 1.062 9.071 17.273l7.835 18.964h8.137c5.126 0 8.412-.433 8.881-1.171 1.071-1.682.945-2.894-.224-2.171-.55.34-1 .141-1-.441 0-2.086 2.868-1.012 3.18 1.191.307 2.161.764 2.261 11.551 2.533 9.751.245 11.154.08 10.643-1.25-.77-2.007.506-1.951 2.797.122 1.702 1.54 1.829 1.54 1.829 0 0-.91-.477-1.655-1.059-1.655s-.776-.457-.431-1.016c.918-1.486 2.49-.176 2.49 2.075 0 1.634.712 1.941 4.5 1.941 2.475 0 4.5-.45 4.5-1s-.434-1-.965-1c-.53 0-1.487-.977-2.126-2.171-.953-1.779-.857-2.394.532-3.41.932-.681 2.345-4.026 3.139-7.434l1.446-6.195-5.473-13.111c-4-9.582-5.148-13.317-4.263-13.879.92-.585.898-.773-.093-.785-.716-.008-2.671-2.94-4.344-6.515-1.673-3.575-3.562-6.454-4.197-6.398-.636.055-12.631 4.988-26.656 10.961m60.595-8.536c-6.013 3.136-7.563 9.138-3.112 12.054 2.031 1.331 3.069 1.422 5.707.503 7.29-2.542 10.279-9.242 5.587-12.527-2.776-1.945-4.498-1.951-8.182-.03m52.653 4.079c-1.64 3.44-1.632 3.64.213 4.989 2.826 2.067 4.467 1.725 5.564-1.16 1.48-3.894 1.205-5.009-1.547-6.263-2.343-1.068-2.642-.896-4.23 2.434m-53.111-.271c-1.431 1.724.124 6.673 2.088 6.65 3.022-.037 4.23-1.789 3.218-4.666-1.117-3.177-3.558-4.09-5.306-1.984m95.071 5.002c-2.36 1.235-3.973 2.565-3.583 2.955 1.257 1.257 2.803.688 6.337-2.333 4.1-3.504 3.158-3.717-2.754-.622m-29.767 1.778c-2.395 4.63-.205 6.186 2.489 1.769 2.453-4.025 2.558-4.884.596-4.884-.811 0-2.199 1.402-3.085 3.115M175 61.759C175 62.421 225.206 88 226.505 88c.272 0 .495-.468.495-1.039C227 86.16 176.952 61 175.36 61c-.198 0-.36.342-.36.759m26.452 3.334c-1.751 3.386-1.307 4.862.909 3.023 1.136-.943 1.532-.68 2.043 1.357.875 3.487 2.326 3.162 4.291-.96 1.656-3.473 1.051-6.285-.749-3.484-.775 1.205-1.058 1.064-1.563-.779-.868-3.168-3.05-2.795-4.931.843m-29.389 4.784C170.928 72.101 170 74.154 170 74.44c0 .523 7.472 4.56 8.44 4.56.654 0 4.56-7.592 4.56-8.862 0-.518-1.238-1.39-2.75-1.938a155.14 155.14 0 0 1-4.437-1.681c-1.279-.519-2.187.294-3.75 3.358m40.864-1.019c-2.773 2.246-1.856 5.871 1.713 6.766 3.101.779 5.617-1.215 3.352-2.655-.821-.521-2.032-.751-2.691-.509-.714.261-.974-.148-.643-1.011.63-1.642 2.342-1.97 2.342-.449 0 .55.675 1 1.5 1 2.381 0 1.741-2.569-.946-3.793-1.986-.905-2.856-.783-4.627.651M97.968 72.027c-.03 2.31-.122 2.354-1.404.663-1.762-2.324-3.05-.466-1.58 2.279.931 1.741 1.374 1.844 3.296.771a272.481 272.481 0 0 1 2.572-1.425c.194-.102-.369-1.215-1.25-2.473L98 69.555l-.032 2.472m76.639-.445c-.848 2.209-.761 2.631.393 1.918.55-.34 1 .084 1 .941 0 2.201 1.728 1.936 3.011-.462 1.45-2.71.309-4.479-1.792-2.778-1.202.974-1.415.986-.852.049.413-.687.323-1.25-.201-1.25s-1.225.712-1.559 1.582m7.683 3.758-2.112 4.348 4.532 2.202c2.492 1.211 4.647 2.068 4.788 1.906.141-.163 1.214-2.196 2.385-4.517l2.128-4.222-2.755-1.402c-6.082-3.094-6.701-2.977-8.966 1.685m40.783-1.413c-2.485 2.485-2.572 3.431-.502 5.502 1.967 1.966 4.812 2.02 6.389.119 1.644-1.98.979-4.518-1.637-6.252-1.958-1.298-2.384-1.235-4.25.631m-37.191.764a6.16 6.16 0 0 0 0 1.559c.065.412-.332.75-.882.75s-1 .675-1 1.5.477 1.5 1.059 1.5.781-.45.441-1-.19-1 .334-1c1.363 0 2.261-2.823 1.122-3.527-.526-.325-1.009-.227-1.074.218m47.832 1.323c.257.983 1.474 1.98 2.705 2.215 1.822.349 2.164.042 1.84-1.65-.255-1.334-1.225-2.128-2.705-2.216-1.754-.103-2.195.293-1.84 1.651m-148.562-.129c-1.652 1.047-1.166 4.278.739 4.913 1.053.35 1.231-.176.731-2.168-.366-1.457-.237-2.63.289-2.63.523 0 1.145 1.013 1.383 2.25.372 1.929.453 1.858.57-.5.139-2.802-1.185-3.467-3.712-1.865m139.499.583c-.31.807-.133 1.734.393 2.059.526.325.956.376.956.114 0-.263.273-1.189.607-2.059.334-.87.157-1.582-.393-1.582s-1.254.661-1.563 1.468m-57.743 3.713c-2.044 4.006-2.058 4.236-.33 5.5.993.725 2.367 1.319 3.054 1.319.688 0 1.542.473 1.9 1.051.357.579-1.021.354-3.063-.5-4.577-1.912-4.189-1.942-5.457.426-1.349 2.521.927 8.385 3.863 9.956 1.882 1.007 2.406.374 6.585-7.96 2.497-4.98 4.54-9.252 4.54-9.494 0-.466-7.561-4.479-8.44-4.479-.286 0-1.479 1.881-2.652 4.181m21.236-1.431c-1.091 2.55-1.066 2.609.34.809.834-1.068 1.516-2.305 1.516-2.75 0-1.52-.678-.81-1.856 1.941m5.615-.5c-3.339 5.108-3.154 6.508 1.149 8.703 2.207 1.126 4.246 2.047 4.532 2.047.523 0 4.56-7.472 4.56-8.44 0-.492-7.444-4.56-8.345-4.56-.234 0-1.087 1.013-1.896 2.25M74.75 79.689c-1.943.508-2.294 1.857-.734 2.821.559.346.728 1.095.375 1.666-.418.677.185.784 1.734.307 1.306-.402 2.529-.867 2.716-1.032.578-.509-.933-4.458-1.658-4.335-.376.064-1.47.322-2.433.573m85 1.847c-1.938 2.592-2.168 3.464-.911 3.464.832 0 3.501-5.007 2.948-5.531-.158-.15-1.074.78-2.037 2.067m9.91.737c-.521 2.071-.466 2.1.794.417.779-1.041 1.614-1.389 1.966-.819.337.545.155 1.273-.404 1.619-1.335.825-1.306 2.51.043 2.51.582 0 .81-.403.506-.895-.305-.493.156-1.168 1.024-1.501 2.117-.812 1.314-2.843-1.281-3.239-1.469-.224-2.253.341-2.648 1.908m24.52-.989c-.676.813-.726 1.82-.138 2.75.51.806.934 1.073.943.594.008-.48.659-.339 1.445.314 1.146.951 1.659.76 2.581-.963 1.411-2.636.585-3.719-1.51-1.98-1.303 1.081-1.447 1.025-.917-.358.747-1.946-.885-2.189-2.404-.357m-93.804.481c-.721.472-.822 1.542-.282 2.985 1.022 2.733 2.288 3.028 1.433.334-.691-2.175.955-3.731 2.058-1.946.452.731.291.903-.43.457-.635-.392-1.155-.263-1.155.287 0 1.218 1.93 2.521 2.658 1.793.288-.288.228-1.458-.134-2.6-.677-2.132-2.169-2.603-4.148-1.31m76.912 3.579-2.11 4.344 4.532 2.202c2.492 1.211 4.647 2.068 4.788 1.906.141-.163 1.215-2.198 2.387-4.522l2.131-4.225-3.968-2.025c-2.183-1.113-4.347-2.024-4.809-2.024-.462 0-1.79 1.955-2.951 4.344m27.379-3.594c-.249.412-1.153 2.44-2.01 4.505l-1.559 3.754 3.911 1.996c5.145 2.625 5.34 2.584 7.306-1.539 2.313-4.851 2.222-5.152-2.275-7.446-4.427-2.258-4.735-2.331-5.373-1.27M65 84c0 .55-.506.888-1.125.75s-1.352.375-1.63 1.139c-.287.79-.058 1.113.532.749.637-.394.835.13.513 1.361-.293 1.119-.031 2.001.593 2.001.615 0 1.117-.648 1.117-1.441s.445-1.716.989-2.052c.566-.35.734.051.393.941-.328.854-.124 1.552.452 1.552 1.841 0 2.233-1.79.723-3.3-.804-.804-1.183-1.74-.843-2.081.341-.34.094-.619-.547-.619-.642 0-1.167.45-1.167 1m67 1.5c0 .825.6 1.5 1.333 1.5.734 0 1.334-.675 1.334-1.5s-.6-1.5-1.334-1.5c-.733 0-1.333.675-1.333 1.5m48.462-.561c.319.516-.217 1.415-1.191 1.999-1.678 1.005-1.669 1.14.17 2.561 1.886 1.459 4.547 2.156 3.241.85-.358-.358.086-1.19.986-1.848 1.665-1.217.968-4.012-.737-2.958-.512.316-.931.098-.931-.484S181.523 84 180.941 84s-.798.422-.479.939m57.288-.223c-1.513.229-3.206 1.267-3.762 2.307-.987 1.844-.915 1.846 3.012.088 3.996-1.789 6.173-3.248 4.417-2.961-.505.082-2.155.337-3.667.566M90.882 85.75a5.707 5.707 0 0 0 0 1.5c.198 1.258-1.681.835-2.22-.5-.277-.687-.54-.211-.583 1.059-.044 1.282.361 2.037.91 1.698.566-.35.734.051.393.941-.73 1.902.62 2.002 3.049.226 1.268-.927 1.606-1.981 1.124-3.5-.657-2.072-2.423-3.012-2.673-1.424M205 86.5c-.993 1.197-.993 1.803 0 3 .685.825 1.834 1.5 2.555 1.5 1.918 0 2.953-4.063 1.302-5.11-1.886-1.195-2.431-1.109-3.857.61m-16.98 3.46c-1.111 2.178-2.02 4.194-2.02 4.48 0 .523 7.472 4.56 8.44 4.56.523 0 4.56-7.472 4.56-8.44 0-.523-7.472-4.56-8.44-4.56-.286 0-1.428 1.782-2.54 3.96m25.198.529-2.181 4.489 3.941 2.011c2.168 1.106 4.401 2.011 4.962 2.011.982 0 5.532-7.902 4.88-8.474-.502-.44-8.701-4.526-9.081-4.526-.187 0-1.322 2.02-2.521 4.489M180.5 88c-.34.55-.168 1 .382 1s1.278-.45 1.618-1c.34-.55.168-1-.382-1s-1.278.45-1.618 1m-126.725.558C52.76 89.573 54.207 93 55.652 93c1.151 0 1.198-.424.248-2.25-1.501-2.884-1.467-2.849-2.125-2.192m26.21 2.192c-.013 1.496-.157 1.532-.985.25-.755-1.169-.973-.893-.985 1.25-.015 2.734 1.339 3.448 3.697 1.949.683-.434.96-1.738.634-2.985-.689-2.632-2.34-2.957-2.361-.464m48.402 1.534c-6.842 6.27-5.278 17.167 3.03 21.11 4.307 2.043 6.127 1.996 11.159-.289 7.061-3.207 9.479-11.759 5.144-18.193-2.861-4.245-6.042-5.878-11.485-5.897-3.438-.012-4.959.622-7.848 3.269M190 91c0 1.1-.477 2-1.059 2s-.739.518-.347 1.151c.501.812 1.068.664 1.919-.5.664-.908 1.806-1.651 2.538-1.651.822 0 .589.543-.608 1.418-1.067.78-1.598 1.76-1.181 2.177.417.418 1.415-.108 2.217-1.168 1.879-2.484 1.885-3.427.021-3.427-.825 0-1.5-.45-1.5-1s-.45-1-1-1-1 .9-1 2m-25.296 1.025c-.285 1.088-.109 1.726.389 1.417.499-.308.907.142.907.999 0 2.226 1.733 1.926 3.046-.527 1.245-2.327.787-3.164-1.961-3.583-1.165-.178-2.058.458-2.381 1.694m51.632-1.356c.367.368-.12 1.597-1.084 2.733-1.665 1.961-1.665 1.996-.002.708 1.504-1.165 1.75-1.127 1.75.268 0 2.088 2.598 2.113 3.396.032.898-2.339-.307-3.729-2.008-2.317-1.164.966-1.315.881-.804-.452.381-.992.126-1.641-.644-1.641-.7 0-.972.301-.604.669M18.019 91.913c2.375 1.451 30.013 10.388 30.529 9.872.506-.505-1.49-6.785-2.157-6.785-.227 0-4.57-.635-9.652-1.412-14.277-2.182-20.455-2.735-18.72-1.675m86.929-.093c-1.319.578-1.358 1.054-.264 3.18l1.287 2.5.014-2.309c.009-1.307.456-2.036 1.031-1.681.559.346.758 1.047.441 1.559-.643 1.041.856 1.285 1.841.3.74-.74-1.035-4.402-2.083-4.299-.393.039-1.413.376-2.267.75m61.131-.129c-.114 1.721 1.656 2.548 2.506 1.171.432-.698.292-.904-.345-.51-.588.363-1.297.095-1.576-.596-.362-.899-.529-.917-.585-.065m6.209 3.653-2.11 4.344 4.532 2.202c2.492 1.211 4.647 2.068 4.788 1.906.141-.163 1.215-2.198 2.387-4.522l2.131-4.225-3.968-2.025c-2.183-1.113-4.347-2.024-4.809-2.024-.462 0-1.79 1.955-2.951 4.344m25.93.145-2.181 4.489 3.941 2.011c2.168 1.106 4.327 2.011 4.797 2.011.883 0 4.225-6.339 4.225-8.014 0-.763-6.996-4.986-8.261-4.986-.187 0-1.322 2.02-2.521 4.489M68.25 94.426c-1.237.576-2.25 1.418-2.25 1.87 0 .452.45.544 1 .204.55-.34 1 .309 1 1.441 0 1.132.388 2.059.861 2.059.474 0 .647-1.125.384-2.5-.264-1.379-.009-2.5.569-2.5.576 0 1.242 1.013 1.48 2.25.38 1.971.451 1.916.57-.441.164-3.242-.638-3.77-3.614-2.383m131.592 2.022c-1.306 2.866-1.229 3.031 1.847 3.976 1.603.492 2.474.14 3.253-1.315 1.372-2.563-.145-3.568-3.171-2.1-2.089 1.013-2.126.984-.461-.358 1.142-.921 1.42-1.7.754-2.111-.58-.359-1.581.499-2.222 1.908M95 96.441c0 .793-.52 1.762-1.155 2.154-.715.443-.883.275-.44-.44.392-.635.236-1.155-.346-1.155S92 97.413 92 97.918c0 1.775 1.224 4.082 2.166 4.082.524 0 .677-.445.341-.989-.346-.56.041-.738.893-.411 2.564.984 3.639-.42 2.402-3.136C96.566 94.752 95 94.18 95 96.441m80.607.141c-.954 2.485-.692 4.096.393 2.418.828-1.282.972-1.246.985.25.02 2.339 1.692 2.223 2.993-.208.841-1.573.664-2.163-.9-3-2.544-1.362-2.754-1.329-3.471.54m33.417 3.37c-1.113 2.183-2.024 4.353-2.024 4.823 0 .883 6.339 4.225 8.014 4.225.931 0 5.428-7.929 4.806-8.474-.176-.154-2.222-1.239-4.546-2.411l-4.225-2.131-2.025 3.968M129 97.875c0 .554.45 1.285 1 1.625.55.34 1 2.424 1 4.632 0 3.285.318 3.953 1.75 3.678 1.388-.268 1.75-1.37 1.75-5.324 0-4.696-.16-5.004-2.75-5.302-1.512-.174-2.75.136-2.75.691m7.667-.208c-1.654 1.654-.59 3.551 1.742 3.106 2.85-.545 2.496 1.673-.527 3.29-3.384 1.811-2.273 3.937 2.059 3.937 4.036 0 6.277-1.629 4.095-2.978-.955-.59-.941-1.2.062-2.807 1.046-1.675 1.04-2.344-.031-3.634-1.31-1.579-6.139-2.176-7.4-.914m-104.85 1.108c-.951.195-1.62 1.19-1.537 2.285.108 1.442.893 1.94 3.055 1.94 2.188 0 2.665-.31 1.922-1.25-.544-.687-1.161-1.716-1.373-2.286-.211-.57-1.141-.88-2.067-.689m27.65.542c-.408 1.012-.238 2.312.384 2.934 1.646 1.646 2.325.386 1.271-2.356-.829-2.154-.995-2.212-1.655-.578M165 102c0 1.65.45 3 1 3s1.006-.338 1.014-.75c.007-.412.285-1.763.616-3 .444-1.654.175-2.25-1.013-2.25-1.13 0-1.617.904-1.617 3m21.235-2.292c-1.245.239-1.994.873-1.664 1.407.331.535.057 1.628-.607 2.429-.994 1.197-.831 1.456.914 1.456 1.167 0 2.122.45 2.122 1s.45 1 1 1 1-.675 1-1.5.787-1.514 1.75-1.532c1.578-.028 1.594-.151.162-1.25-.873-.67-1.398-1.78-1.166-2.468.231-.687.046-1.189-.413-1.114-.458.075-1.852.332-3.098.572m-129.031 2.247c.671 1.075 1.36 1.814 1.532 1.643.592-.593-.954-3.598-1.851-3.598-.496 0-.353.88.319 1.955M210.5 101c-.34.55-.297 1.52.095 2.155.443.715.275.883-.44.44-.635-.392-1.151-.349-1.147.096.004.445 1.155 1.341 2.557 1.992 2.261 1.049 2.645.936 3.4-1 1.177-3.018-2.832-6.325-4.465-3.683m-43.288 4.5c-2.149 4.423-2.152 4.5-.199 4.5 1.093 0 1.938-.338 1.879-.75-.06-.412.202-1.703.582-2.867.599-1.838 1.008-1.97 3.1-1 2.997 1.389 3.116 2.395.265 2.237-1.189-.066-2.348.555-2.576 1.38-.248.895-.082 1.096.411.5 1.144-1.385 3.326-1.713 3.326-.5 0 1.997 2.707.937 3.815-1.492 1.057-2.32.863-2.632-2.8-4.5-2.164-1.105-4.314-2.008-4.776-2.008-.462 0-1.824 2.025-3.027 4.5m26 0c-2.131 4.387-2.137 4.5-.23 4.5 1.413 0 1.778-.462 1.317-1.664-.464-1.208-.276-1.44.686-.846.881.545 1.085.433.61-.335-1.259-2.039.299-3.016 2.887-1.811 1.7.792 2.308 1.707 1.932 2.906-.7 2.234 2.125 2.393 2.979.168 1.057-2.754.699-3.33-3.353-5.398-2.178-1.111-4.114-2.02-4.301-2.02-.187 0-1.324 2.025-2.527 4.5m34.788-.547c0 1.126-.45 2.047-1 2.047s-1 .45-1 1 .653 1 1.45 1c.798 0 1.826.671 2.285 1.49.657 1.176 1.055.904 1.882-1.287.909-2.408.738-3.011-1.284-4.537-2.257-1.702-2.333-1.693-2.333.287m-153-.311c0 .537.7 1.849 1.555 2.917 1.467 1.83 1.487 1.798.365-.559-1.458-3.061-1.92-3.628-1.92-2.358m44.896 2.272c1.703 1.079.736 4.086-1.315 4.086-.815 0-1.94-.787-2.501-1.75-.561-.963-1.033-1.278-1.05-.7-.097 3.371 5.462 4.625 6.467 1.459.723-2.276-.064-4.016-1.806-3.994-.772.01-.7.327.205.899m59.219.872c-.856 1.599-.415 1.805 4.214 1.964l5.171.178-3.5-1.922c-4.372-2.401-4.711-2.414-5.885-.22m17.885-.227c0 .857.457 1.276 1.016.931.559-.346.758-1.047.441-1.559-.857-1.387-1.457-1.129-1.457.628m7.933.566c-.886 1.655-.844 2.312.187 2.949.74.457 1.596.386 1.933-.161.336-.543 1.767.179 3.206 1.619l2.6 2.6 1.152-2.152c1.346-2.516 1.614-2.167-3.725-4.859l-4.214-2.125-1.139 2.129m15.102 6.809c-.569 1.064-1.035 2.189-1.035 2.5 0 .978 7.141.585 17-.934l10.5-1.616c2.654-.402-9.966-1.719-17.215-1.796-7.15-.077-8.349.163-9.25 1.846M61 116.583c0 1.766 2.153 1.459 2.771-.395.218-.654-.317-1.188-1.188-1.188S61 115.713 61 116.583m9 0c0 .871.534 1.406 1.188 1.188 1.854-.618 2.161-2.771.395-2.771-.87 0-1.583.713-1.583 1.583m9 0c0 1.766 2.153 1.459 2.771-.395.218-.654-.317-1.188-1.188-1.188-.87 0-1.583.713-1.583 1.583m8.667-.916c-1.151 1.15-.729 2.333.833 2.333.825 0 1.5-.675 1.5-1.5 0-1.562-1.183-1.984-2.333-.833m8.792.4c-.363.586-.419 1.306-.126 1.6.717.716 2.667-.546 2.667-1.726 0-1.278-1.726-1.193-2.541.126m8.541.516c0 1.766 2.153 1.459 2.771-.395.218-.654-.317-1.188-1.188-1.188-.87 0-1.583.713-1.583 1.583m61.667-.916c-1.151 1.15-.729 2.333.833 2.333.825 0 1.5-.675 1.5-1.5 0-1.562-1.183-1.984-2.333-.833m8.792.4c-.363.586-.419 1.306-.126 1.6.717.716 2.667-.546 2.667-1.726 0-1.278-1.726-1.193-2.541.126m8.541.516c0 1.766 2.153 1.459 2.771-.395.218-.654-.317-1.188-1.188-1.188-.87 0-1.583.713-1.583 1.583m9 0c0 1.766 2.153 1.459 2.771-.395.218-.654-.317-1.188-1.188-1.188-.87 0-1.583.713-1.583 1.583m9.122.77c-1.062 1.28-.578 2.647.938 2.647 1.121 0 1.959-2.87 1.01-3.457-.464-.287-1.34.078-1.948.81M52 118.583c0 .871.534 1.406 1.188 1.188 1.854-.618 2.161-2.771.395-2.771-.871 0-1.583.713-1.583 1.583m-27.363.966c-5.425.739-10.064 1.545-10.309 1.79-.246.245 2.73.719 6.613 1.054 3.882.334 10.097.866 13.811 1.184l6.752.576 1.161-3.076L43.826 118l-4.663.103c-2.565.057-9.101.708-14.526 1.446M46.5 123c-.816 1.32.38 3.192 1.569 2.457 1.215-.75 1.207-3.457-.01-3.457-.518 0-1.219.45-1.559 1m161.167-.333c-1.151 1.15-.729 2.333.833 2.333.825 0 1.5-.675 1.5-1.5 0-1.562-1.183-1.984-2.333-.833M200 129.736c0 .614-.583 1.263-1.297 1.441-1.01.252-1.045.82-.156 2.575 1.079 2.132 1.223 2.159 2.72.5 1.378-1.528 1.398-2.001.157-3.693-.783-1.068-1.424-1.438-1.424-.823m10.639-.042c-.953.953-.772 3.306.254 3.306 1.227 0 2.212-2.817 1.203-3.441-.449-.277-1.105-.217-1.457.135m-165.972.973c-1.151 1.15-.729 2.333.833 2.333.825 0 1.5-.675 1.5-1.5 0-1.562-1.183-1.984-2.333-.833M63 157v27h8.55c14.289 0 17.944-3.545 17.277-16.755-.33-6.531-.698-7.737-2.952-9.676l-2.576-2.216 2.351-2.732c1.922-2.235 2.35-3.865 2.35-8.954C88 133.269 83.821 130 70.532 130H63v27m31-.057V184H103.033l-.267-26.75-.266-26.75-4.25-.307-4.25-.308v27.058m15 .005V184h7v-18.667c0-10.266.243-18.424.539-18.127.297.297 2.68 8.584 5.296 18.417l4.755 17.877 4.205.307 4.205.308V130h-7v15.167c0 8.341-.209 14.957-.465 14.701-.256-.255-2.208-6.968-4.338-14.916l-3.873-14.452-5.162-.302-5.162-.303v27.053m35.766-24.032-3.266 2.916-.309 19.558c-.258 16.332-.045 20.116 1.295 22.939 4.048 8.53 17.782 8.267 22.249-.425.752-1.462 1.241-6.615 1.25-13.154L166 154h-12v4c0 3.333.333 4 2 4 1.788 0 2 .667 2 6.3 0 3.567-.521 6.821-1.2 7.5-1.837 1.837-5.608 1.428-6.765-.734-.593-1.108-1.035-8.945-1.035-18.345 0-14.629.199-16.591 1.829-18.066 1.006-.91 2.323-1.655 2.928-1.655 2.293 0 4.243 3.25 4.243 7.071 0 3.917.012 3.929 4 3.929h4v-4.032c0-5.119-2.125-10.242-5.117-12.337-1.436-1.006-4.344-1.631-7.59-1.631-4.399 0-5.797.478-8.527 2.916m30 0-3.266 2.915-.316 18.327c-.364 21.131-.043 23.71 3.371 27.124 5.152 5.152 15.914 4.278 19.487-1.583 1.655-2.715 1.951-5.067 1.954-15.543.004-11.501.141-12.379 2.004-12.866 1.1-.288 2-1.146 2-1.907 0-1.724-2.636-1.828-3.388-.133-.372.839-.524.757-.464-.25.049-.825.036-3.907-.03-6.85-.103-4.673-.548-5.78-3.518-8.75-3.055-3.055-3.967-3.4-8.984-3.4-4.756 0-6.069.433-8.85 2.916m-148.57-.019C12.408 137.66 6.961 152.149 14 165.34c1.65 3.092 3 6.264 3 7.047 0 .864.69 1.247 1.75.972.962-.25 3.719.242 6.126 1.093 4.449 1.574 11.675 2.041 14.542.941 1.374-.527 1.582-3.403 1.582-21.869v-21.262l-3.75-.62c-5.035-.832-4.998-.837-11.054 1.255M219 138.99c0 3.805 4.263 4.784 6.43 1.477 1.421-2.169 1.333-2.284-2.479-3.251-3.894-.989-3.951-.963-3.951 1.774m-194.305-.542c-.932.932-1.695 2.923-1.695 4.423 0 2.442.361 2.729 3.436 2.729 4.332 0 5.148-2.335 2.136-6.112-2.051-2.572-2.283-2.634-3.877-1.04m155.96.381c-1.397 1.543-1.655 4.36-1.655 18.065 0 9.281.444 17.066 1.035 18.172 1.157 2.162 4.928 2.571 6.765.734.84-.84 1.2-6.362 1.2-18.429 0-14.329-.264-17.493-1.571-18.8-2.061-2.06-3.745-1.985-5.774.258m-135.561.558c-.818.985-.86 1.639-.135 2.087.58.359 1.333-.07 1.672-.954.844-2.2-.084-2.884-1.537-1.133M71 145v7h3.465c3.947 0 5.535-2.008 5.535-7s-1.588-7-5.535-7H71v7m139-5.417c0 1.766 2.153 1.459 2.771-.395.218-.654-.317-1.188-1.188-1.188-.87 0-1.583.713-1.583 1.583m26.571-.012c-.864.865-1.571 2.685-1.571 4.046 0 2.465 3.967 7.383 5.955 7.383 1.95 0 5.045-3.988 5.045-6.5 0-5.093-6.084-8.273-9.429-4.929m3.62 2.143c-1.676.32-2.225 1.016-2 2.535.17 1.152.943 2.303 1.718 2.559.969.319 1.213-.047.782-1.172-.682-1.775.794-2.278 1.819-.62 1.022 1.653 2.347.151 1.779-2.017-.287-1.099-.807-1.938-1.156-1.863-.348.075-1.672.335-2.942.578m-29.822 5.766c-.844 2.2.084 2.884 1.537 1.133.818-.985.86-1.639.135-2.087-.58-.359-1.333.07-1.672.954m16.875-.816c-1.576.636-.618 2.336 1.315 2.336.793 0 1.441-.675 1.441-1.5 0-1.542-.573-1.716-2.756-.836m-182.55.975c-.799.799.104 2.361 1.365 2.361.518 0 .941-.675.941-1.5 0-1.546-1.18-1.987-2.306-.861m172.498 3.436c.197.591.786 1.075 1.308 1.075s1.111-.484 1.308-1.075c.197-.591-.391-1.075-1.308-1.075s-1.505.484-1.308 1.075m-6.783 4.301c-.847 2.208.28 3.335 1.808 1.807.902-.902.905-1.461.016-2.35-.89-.89-1.324-.761-1.824.543m15.692.002c-.896 1.08-.721 1.488.813 1.889 1.658.434 3.086-.884 3.086-2.849 0-.999-2.857-.295-3.899.96m-181.434.289c-1.151 1.15-.729 2.333.833 2.333.825 0 1.5-.675 1.5-1.5 0-1.562-1.183-1.984-2.333-.833M5 161.5c0 .825.675 1.5 1.5 1.5s1.5-.675 1.5-1.5-.675-1.5-1.5-1.5-1.5.675-1.5 1.5m66 6.5v8h3.965c4.998 0 6.451-2.324 5.785-9.252-.528-5.498-1.699-6.71-6.5-6.733L71 160v8m-25.906-3.613c-.818.985-.86 1.639-.135 2.087.58.359 1.333-.07 1.672-.954.844-2.2-.084-2.884-1.537-1.133M210 164.5c0 .917.484 1.505 1.075 1.308.591-.197 1.075-.786 1.075-1.308s-.484-1.111-1.075-1.308c-.591-.197-1.075.391-1.075 1.308m9.18 1.693c.238 1.629 1.83 2.799 6.189 4.548 3.228 1.295 6.046 2.177 6.263 1.961.437-.438-11.064-8.702-12.11-8.702-.364 0-.517.987-.342 2.193m-8.811 6.287c-.844 2.2.084 2.884 1.537 1.133.818-.985.86-1.639.135-2.087-.58-.359-1.333.07-1.672.954m-165.702.187c-1.151 1.15-.729 2.333.833 2.333.825 0 1.5-.675 1.5-1.5 0-1.562-1.183-1.984-2.333-.833M44.5 181c-.816 1.32.38 3.192 1.569 2.457 1.215-.75 1.207-3.457-.01-3.457-.518 0-1.219.45-1.559 1m157.5.885c0 1.438.461 1.875 1.542 1.46 1.707-.655 1.497-2.499-.354-3.116-.66-.22-1.188.517-1.188 1.656m8-.302c0 1.766 2.153 1.459 2.771-.395.218-.654-.317-1.188-1.188-1.188-.87 0-1.583.713-1.583 1.583m-120.724 2.246c-.753.466-.847 1.247-.265 2.189.604.977 1.239 1.132 1.906.465 1.302-1.302-.116-3.596-1.641-2.654m-41.907 5.651c-.844 2.2.084 2.884 1.537 1.133.818-.985.86-1.639.135-2.087-.58-.359-1.333.07-1.672.954M209 192c0 1.111.667 2 1.5 2s1.5-.889 1.5-2-.667-2-1.5-2-1.5.889-1.5 2m-8.385 1.088c-4.445 3.497-7.369 10.912-4.302 10.912 2.619 0 8.687-7.987 8.687-11.434 0-2.115-1.217-1.97-4.385.522m-4.979.406c.316.822.976 1.246 1.469.941 1.412-.872 1.044-2.435-.574-2.435-.892 0-1.243.587-.895 1.494m-143.227.882c-.847 2.208.28 3.335 1.808 1.807.902-.902.905-1.461.016-2.35-.89-.89-1.324-.761-1.824.543m14.951.128c-.85 2.216 2.201 5.335 3.727 3.809 1.556-1.556.72-4.726-1.352-5.125-.957-.185-2.026.407-2.375 1.316M81 195.1c0 1.577-.382 1.705-2.584.868-5.971-2.27-5.935 2.377.062 7.905 5.043 4.649 9.522 5.613 9.522 2.05 0-1.142-1.35-3.427-3-5.077-3.488-3.488-3.724-4.211-1.104-3.379 1.525.484 1.868.13 1.75-1.807-.184-3.029-4.646-3.566-4.646-.56m7.094 1.287c-.818.985-.86 1.639-.135 2.087.58.359 1.333-.07 1.672-.954.844-2.2-.084-2.884-1.537-1.133m17.315-.011c-.847 2.208.28 3.335 1.808 1.807.902-.902.905-1.461.016-2.35-.89-.89-1.324-.761-1.824.543m9 0c-.847 2.208.28 3.335 1.808 1.807.902-.902.905-1.461.016-2.35-.89-.89-1.324-.761-1.824.543m8.713-.023c-1.062 1.28-.578 2.647.938 2.647 1.121 0 1.959-2.87 1.01-3.457-.464-.287-1.34.078-1.948.81m26.287.023c-.847 2.208.28 3.335 1.808 1.807.902-.902.905-1.461.016-2.35-.89-.89-1.324-.761-1.824.543m9.23-.682c-.953.953-.772 3.306.254 3.306 1.227 0 2.212-2.817 1.203-3.441-.449-.277-1.105-.217-1.457.135m8.455.693c-.818.985-.86 1.639-.135 2.087.58.359 1.333-.07 1.672-.954.844-2.2-.084-2.884-1.537-1.133m17.315-.011c-.847 2.208.28 3.335 1.808 1.807.902-.902.905-1.461.016-2.35-.89-.89-1.324-.761-1.824.543M96 197.583c0 .871.534 1.406 1.188 1.188 1.854-.618 2.161-2.771.395-2.771-.87 0-1.583.713-1.583 1.583m35.543-.652c-.683 1.105.894 2.299 1.818 1.375.95-.951.773-2.306-.302-2.306-.518 0-1.2.419-1.516.931m8.457.652c0 1.766 2.153 1.459 2.771-.395.218-.654-.317-1.188-1.188-1.188-.87 0-1.583.713-1.583 1.583m35 0c0 1.766 2.153 1.459 2.771-.395.218-.654-.317-1.188-1.188-1.188-.87 0-1.583.713-1.583 1.583m33 .417c0 .55.45 1 1 1s1-.45 1-1-.45-1-1-1-1 .45-1 1m-156.805 3.06c-1.191 1.907-1.133 1.977.787.949 1.141-.61 1.81-1.537 1.487-2.059-.782-1.266-.795-1.259-2.274 1.11M128 199.514c0 .282.563 1.421 1.25 2.53 1.03 1.663.986 2.185-.25 2.971-.825.525-2.4.963-3.5.973-2.442.024-5.5 6.772-5.5 12.138 0 6.581 7.128 12.602 13.664 11.541 7.33-1.189 12.163-7.444 10.911-14.121-.728-3.879-4.981-9.546-7.164-9.546-.838 0-1.411-1.014-1.411-2.5 0-1.984-.504-2.5-2.441-2.5-1.343 0-2.719-.45-3.059-1-.638-1.033-2.5-1.395-2.5-.486m-22.373 13.236c-2.747 18.542-2.831 19.25-2.298 19.25.386 0 6.441-17.631 10.219-29.75.257-.825-.727-1.25-2.895-1.25h-3.285l-1.741 11.75M152 201.4c0 .886 7.033 18.461 9.444 23.6 2.89 6.158 2.894 6.253-.582-12.25L158.654 201h-3.327c-1.83 0-3.327.18-3.327.4m26.547.365c.575.404 3.275 3.638 6 7.186 8.553 11.141 8.536 11.16 2.306-2.677-2.185-4.855-2.602-5.227-5.853-5.235-1.925-.005-3.029.322-2.453.726m31.563 2.631c-2.578 1.429-5.017 5.129-5.075 7.699-.055 2.508 3.313 4.905 6.894 4.905 3.766 0 10.071-5.475 10.071-8.745 0-4.543-6.721-6.725-11.89-3.859m-154.553 2.827c-2.182 3.115-1.939 6.917.693 10.81 2.928 4.331 7.485 6.282 10.806 4.626 5.059-2.522 5.044-9.713-.03-14.787-3.675-3.675-9.134-3.984-11.469-.649m158.11-.556c-1.207 1.207-.696 3.333.802 3.333.899 0 1.243.586.888 1.511-.406 1.059-.12 1.335.954.923 2.185-.838 2.926-3.406 1.178-4.077-.813-.311-1.229-.969-.924-1.462.637-1.03-1.896-1.23-2.898-.228m-5 3c-1.24 1.24-.677 2.551.845 1.967 1.198-.46 1.378-.043.865 2-.599 2.387-.487 2.495 1.488 1.438 2.449-1.31 2.503-1.515 1.1-4.138-1.035-1.933-3.041-2.525-4.298-1.267m-149.15 3.305c-.684 1.107 2.253 6.028 3.598 6.028 1.199 0 1.112-1.407-.276-4.453-1.219-2.677-2.318-3.198-3.322-1.575m106.948 2.321c-.769 1.742-.56 2.55.988 3.834 1.846 1.531 2.039 1.478 3.272-.899.721-1.389 1.078-2.759.793-3.043-.285-.285-.518-.149-.518.303 0 .452-.802.097-1.781-.79-1.652-1.495-1.852-1.452-2.754.595m-31.185 4.365c-1.925 1.341-2.03 1.735-.788 2.976 1.182 1.183 1.789 1.208 3.492.149 2.074-1.29 2.377-3.879.516-4.394-.55-.153-1.999.418-3.22 1.269M136.5 221c-.34.55-.141 1 .441 1s1.059-.45 1.059-1-.198-1-.441-1-.719.45-1.059 1m-9.702 27.353c-2.364 1.802-1.262 5.647 1.619 5.647 1.2 0 2.723-.54 3.383-1.2 1.41-1.41 1.609-4.8.282-4.8-.505 0-1.518-.212-2.25-.472-.733-.259-2.098.112-3.034.825m-38.054 1.092c-.959.702-1.744 1.998-1.744 2.881 0 1.307.977 1.553 5.25 1.319 2.888-.157 5.807.133 6.487.646 1.838 1.385 6.252-.05 6.333-2.06.058-1.425.191-1.466.75-.231.428.943 2.258 1.567 4.93 1.679 4.092.173 4.25.068 4.25-2.809 0-2.155-.348-2.763-1.25-2.179-1.983 1.284-14.748 1.217-14.765-.077-.011-.782-.235-.794-.75-.041-.828 1.208-6.462 1.469-7.241.335-.279-.406-1.291-.164-2.25.537M116 251.059c0 3.129 1.64 3.832 3.947 1.691 1.102-1.023 1.23-.917.699.584-.411 1.165-.226 1.693.508 1.448.635-.212 1.539-1.424 2.009-2.694.66-1.783.539-2.188-.53-1.777-.761.292-2.565-.082-4.009-.831-2.546-1.321-2.624-1.274-2.624 1.579m18.682-2.407c-.375.375-.682 1.731-.682 3.015 0 2.515 1.862 3.071 3.8 1.133.933-.933 1.2-.928 1.2.024 0 .805 1.197 1.091 3.5.837 1.925-.212 3.5.019 3.5.512 0 .496.783.536 1.75.089.963-.444 5.463-.763 10-.708 6.86.083 8.262-.166 8.32-1.477.052-1.152.302-1.038.93.423l.859 2 .141-2 .141-2 .912 2c.826 1.811.891 1.767.68-.464-.218-2.309-.605-2.467-6.11-2.5-3.808-.023-6.047.404-6.357 1.214-.264.688-1.182 1.25-2.04 1.25-.857 0-1.281-.279-.94-.619.758-.759-1.734-3.381-3.215-3.381-.589 0-1.071.384-1.071.854 0 1.094-13.312 1.037-14.068-.06-.313-.453-.875-.517-1.25-.142" fill="#1976D2" fill-rule="evenodd"/><path fill-opacity=".553" d="M90.5 10.795c-1.1.22-2.45.832-3 1.361-.648.624-.379.726.763.291C90.441 11.618 93 13.604 93 16.122c0 1.033-.91 2.788-2.023 3.901-2.672 2.672-5.97 1.126-5.992-2.808-.012-2.12-.228-2.386-.985-1.215-1.834 2.839-1.128 7.963 1.455 10.545C91.107 32.198 101 27.556 101 19.251c0-5.68-4.847-9.583-10.5-8.456m5.5 4.158C96 17.424 98.052 22 99.161 22c1.178 0 1.047-4.743-.196-7.066-1.336-2.496-2.965-2.486-2.965.019m70.858 1.581c1.657 1.394 3.205 3.531 3.441 4.75.411 2.124.434 2.129.565.112.143-2.22-3.981-7.396-5.893-7.396-.618 0 .231 1.14 1.887 2.534m-79.385-.49c-.325.526-.452.99-.282 1.033 2.494.617 3.809.597 3.809-.058 0-1.253-2.866-2.045-3.527-.975m8.037 6.94c-.737 1.193.199 3.016 1.549 3.016 1.217 0 1.225-2.707.01-3.457-.512-.317-1.213-.118-1.559.441m67.49-.197c0 .433.91.856 2.022.94 1.112.083 1.76-.271 1.441-.788-.703-1.136-3.463-1.258-3.463-.152m66.017 3.904c-.009.655.407 1.453.925 1.773 1.984 1.226 2.349 9.485.619 14.014-2.054 5.381-8.29 11.222-12.751 11.946-1.821.295-4.435.709-5.81.92-1.375.211-.25.435 2.5.498 11.208.256 19.044-7.167 18.898-17.903-.055-4.063-.705-6.723-2.221-9.091-1.179-1.841-2.151-2.812-2.16-2.157M119.25 36.22c-1.237.597-2.25 1.483-2.25 1.968 0 .485.87.417 1.934-.153 3.065-1.64 4.066-1.233 4.066 1.653 0 3.349-3.507 8.589-7.212 10.778-2.621 1.549-2.846 1.545-3.459-.052-.361-.94-.172-2.993.421-4.561.592-1.569.683-2.853.202-2.853-1.554 0-2.979 7.42-2.048 10.666 1.454 5.069 2.916 7.105 7.758 10.802 3.965 3.027 5.391 3.532 9.982 3.532 3.249 0 5.356-.435 5.356-1.107 0-.609.623-.868 1.385-.575 1.493.572 5.6-3.324 7.608-7.218 1.757-3.407 1.532-11.183-.433-14.984-2.595-5.017-9.87-9.13-16.006-9.048-2.78.037-6.067.556-7.304 1.152m6.344 1.394c-.363.946-.243 2.137.267 2.647 1.548 1.548 4.639.366 4.639-1.775 0-2.578-3.979-3.285-4.906-.872M66.792 43.73c.508 8.297-6.583 15.455-13.684 13.812-1.961-.453-2.236-.351-1.108.412 3.165 2.142 8.505 1.186 12.459-2.232 3.237-2.798 3.858-4.006 4.246-8.25.294-3.223-.014-5.595-.876-6.742-1.158-1.542-1.291-1.155-1.037 3m134.458-4.068c-.687.278-1.25.903-1.25 1.39 0 .487.749.598 1.664.247 1.119-.43 1.427-.256.941.531-.398.644-.191 1.17.458 1.17.881 0 .865.382-.063 1.5-1.007 1.214-.973 1.5.178 1.5 2.622 0 3.661-1.94 2.444-4.564-1.113-2.401-1.963-2.746-4.372-1.774m-77.804 4.425c-1.03 1.668 1.287 3.58 2.667 2.2C127.267 45.133 126.545 43 125 43c-.485 0-1.184.489-1.554 1.087M69 56.844c-14.025 5.919-26.4 11.334-27.5 12.034-3.031 1.929-1.1 1.169 27.411-10.795C83.438 51.987 95.501 47 95.718 47c.217 0 1.469 2.362 2.781 5.25 2.866 6.307 3.333 4.857.537-1.667-1.081-2.521-2.543-4.564-3.25-4.542-.708.023-12.761 4.884-26.786 10.803m113-9.33c0 .933 52.096 26.488 53.816 26.399 1.517-.078-51.276-26.828-53.066-26.888-.412-.014-.75.206-.75.489M49.38 49.452c-.306.799-.266 1.924.09 2.5.798 1.291 3.53 1.391 3.53.13 0-.505.273-1.63.607-2.5.437-1.139.008-1.582-1.531-1.582-1.177 0-2.39.653-2.696 1.452M168.896 67c-5.081 10.45-9.556 19-9.944 19-.389 0-1.257-.662-1.929-1.472-.672-.81-3.765-2.68-6.872-4.157-7.488-3.557-19.765-3.979-25.071-.862-4.585 2.694-5.34 4.793-1.156 3.214 4.392-1.658 5.786-.028 4.272 4.995-2.012 6.678-11.241 15.608-14.225 13.764-1.992-1.231-.871-6.43 2.452-11.367l3.423-5.087-2.751 1.423-2.751 1.422-5.307-12.968c-2.919-7.133-5.498-12.778-5.731-12.544-.233.233 2.089 6.415 5.161 13.738 5.489 13.085 5.559 13.378 4.113 16.992-1.407 3.517-2.091 11.707-1.403 16.811.307 2.283.042 2.406-5.376 2.5-4.637.08-5.784-.228-6.156-1.652-.492-1.882-2.645-2.444-2.645-.691 0 .582.445.784.989.448.57-.352.732.057.383.967-.447 1.164-.944 1.296-1.9.503-.925-.768-1.49-.757-1.982.04-.474.766-1.282.577-2.589-.607-1.312-1.187-1.901-1.324-1.901-.443 0 1.018-.303 1.027-1.488.043-1.191-.988-1.593-.963-2.012.127-.842 2.189-19.788 1.818-22.278-.436-2.094-1.895-3.406-1.344-2.489 1.046.489 1.273.071 1.423-2.319.837-3.979-.977-4.533-1.747-8.894-12.355-2.096-5.099-3.982-9.101-4.189-8.893-.208.208 1.185 4.029 3.095 8.491 1.91 4.462 3.608 8.766 3.773 9.564.166.798-1.219 2.499-3.076 3.78-1.857 1.281-4.445 4.347-5.75 6.814-2.316 4.376-2.373 5.09-2.373 29.691 0 16.53-.362 25.429-1.05 25.855-.578.357-3.165 1.031-5.75 1.497l-4.7.847 5.5-.187 5.5-.188.593 6.2c.694 7.245 3.755 12.051 9.379 14.72l3.584 1.701 4.586-4.037c4.985-4.388 9.376-5.727 15.164-4.623 5.59 1.066 7.526 1.364 9.444 1.456 1.091.052 1.75.882 1.75 2.205 0 1.8.235 1.928 1.542.843 1.096-.91 1.853-.97 2.613-.21 1.306 1.306.267 3.245-1.737 3.245-1.217 0-1.171.448.273 2.652 2.412 3.68 2.296 11.976-.227 16.283-3.198 5.459-8.588 9.161-14.619 10.038l-5.345.777 4.934.125c7.012.178 12.918-2.913 16.169-8.461 2.179-3.718 2.507-5.281 2.127-10.154-.247-3.168-.785-6.754-1.195-7.968l-.746-2.209 19.855-.291c10.921-.161 34.143-.162 51.606-.002l31.75.29v4.312c0 5.305 2.872 9.87 8.854 14.071 10.899 7.655 25.146.482 25.146-12.661 0-5.854-1.825-9.737-6.175-13.142l-3.215-2.516.179-18.572c.11-11.322-.195-18.572-.78-18.572-.609 0-.603-.937.016-2.565 1.265-3.328 1.216-22.677-.071-28.26-.841-3.647-.688-4.901.978-8C224.404 102.138 235.873 78 235.121 78c-.49 0-5.211 8.806-10.49 19.569-5.939 12.106-10.012 19.313-10.682 18.899-.595-.367-1.658.12-2.363 1.083-.929 1.271-1.484 1.424-2.019.557-.407-.658-.208-1.836.441-2.618.65-.783.944-2 .654-2.706-.332-.809-.78-.452-1.211.966-.695 2.286-1.58 2.788-2.787 1.581-.367-.368.12-1.605 1.084-2.75 1.726-2.05 1.721-2.055-.327-.331-2.807 2.363-4.421 2.202-4.421-.441 0-2.138-.035-2.144-1.425-.25-1.392 1.896-1.544 1.899-6.522.142-4.492-1.585-5.273-1.624-6.572-.325-1.299 1.299-1.854 1.285-4.671-.121-2.302-1.148-3.306-1.267-3.587-.425-.214.644-1.054 1.17-1.865 1.17-.812 0-1.198-.45-.858-1 .34-.55.19-1-.334-1s-1.203.653-1.509 1.452c-.342.891-1.446 1.283-2.857 1.013-3.681-.702-7.8-2.627-7.8-3.645 0-.516-.359-.716-.798-.445-.439.271-1.451.085-2.25-.413-1.207-.753-1.088-1.162.71-2.429 1.189-.838 2.061-2.213 1.938-3.056-.291-1.982-2.148-1.841-1.95.148.082.83-.136 1.222-.486.873-.349-.35-.702-1.969-.784-3.598-.129-2.567.136-2.884 1.985-2.379 2.062.563 2.07.531.243-.933-1.04-.834-2.342-1.666-2.893-1.85-.631-.21-.544-1.189.234-2.643.848-1.583.913-2.633.207-3.339-.705-.705 2.097-7.276 8.912-20.892C175.536 56.939 179.587 48 179.071 48s-5.095 8.55-10.175 19M125.4 52.4c-3.872 3.872-4.286 6.714-1.4 9.6 4.841 4.841 16-.783 16-8.065 0-2.236-4.156-4.935-7.6-4.935-2.761 0-4.393.793-7 3.4m2.93 1.67c-.792.792-.791 1.899.007 4.012 1.159 3.071 2.194 3.501 4.663 1.937 1.322-.837 1.302-1.276-.171-3.708-1.955-3.228-2.995-3.745-4.499-2.241M98.015 71.559c.023 1.382 1.799 3.961 2.349 3.41.26-.259-.166-1.345-.946-2.412-.78-1.066-1.411-1.516-1.403-.998m-56.519 9.416C44.903 88.949 46 91.092 46 89.771c0-1.143-6.234-15.306-7.162-16.271-.529-.55.667 2.814 2.658 7.475M95.35 75.05c.279 1.537 2.027 1.377 2.451-.225.277-1.046.15-1.038-.604.038-.673.961-1.116 1.028-1.501.225-.353-.736-.475-.749-.346-.038m-7.619 2.03c.354 1.352.807 1.806 1.057 1.057.24-.722-.038-1.787-.62-2.369-.742-.742-.872-.351-.437 1.312m-2.7.42c0 .55.436 1.675.969 2.5.533.825.969 1.05.969.5S86.533 78.825 86 78c-.533-.825-.969-1.05-.969-.5m103.428.567c-.363.586-.445 1.281-.183 1.543s.743-.218 1.069-1.067c.676-1.762.1-2.072-.886-.476M170 82c-.589 1.1-.845 2-.57 2s.981-.9 1.57-2c.589-1.1.845-2 .57-2s-.981.9-1.57 2m-93.244-.336c.691.279.959.988.596 1.576-.394.637-.188.777.51.345 1.377-.85.55-2.62-1.171-2.506-.852.056-.834.223.065.585m116.977 1.46c.679.684 1.486.991 1.793.683.308-.308-.247-.867-1.233-1.243-1.425-.542-1.54-.428-.56.56m-90.169 1.583c-.542 1.425-.428 1.54.56.56.684-.679.991-1.486.683-1.793-.308-.308-.867.247-1.243 1.233M133 83.82c-.825.374-1.623 1.428-1.774 2.343-.201 1.224.26 1.523 1.75 1.133 1.128-.295 2.024-1.363 2.024-2.413 0-1.035-.113-1.851-.25-1.813-.137.039-.925.376-1.75.75m-67.267 1.304c.679.684 1.486.991 1.793.683.308-.308-.247-.867-1.233-1.243-1.425-.542-1.54-.428-.56.56m139.413 1.2c-.878 1.058-.7 1.77.778 3.107 1.826 1.652 1.968 1.639 2.996-.282 1.353-2.527 1.357-3.149.021-3.149-.582 0-.81.403-.506.895.305.493-.104 1.148-.909 1.457-.804.308-1.704.169-2-.31-.296-.479.027-1.073.718-1.32.691-.246.983-.746.649-1.109-.335-.364-1.121-.044-1.747.711M88 88c0 .55.477 1 1.059 1s.781-.45.441-1-.816-1-1.059-1-.441.45-.441 1m45.542.729c-5.828 1.481-9.809 7.021-9.719 13.526.177 12.803 17.526 17.421 24.217 6.446 4.23-6.936 1.297-16.149-6.079-19.1-4.099-1.64-5.019-1.735-8.419-.872m-79.285 2.034c.093 1.23.523 2.237.956 2.237 1.043 0 .972-1.159-.184-2.987-.739-1.169-.904-1.009-.772.75m26.774-.263c0 .55.436 1.675.969 2.5.533.825.969 1.05.969.5S82.533 91.825 82 91c-.533-.825-.969-1.05-.969-.5M165 92c-.589 1.1-.845 2-.57 2s.981-.9 1.57-2c.589-1.1.845-2 .57-2s-.981.9-1.57 2m51.086.24c-1.211 1.945-1.21 2.103.003 1.138.776-.616 2.201-.993 3.166-.837.965.156 1.496-.134 1.181-.645-.316-.511-.955-.693-1.42-.406-.465.287-.998.065-1.184-.494-.186-.558-.972.001-1.746 1.244m-137.829.523c.093 1.23.523 2.237.956 2.237 1.043 0 .972-1.159-.184-2.987-.739-1.169-.904-1.009-.772.75m115.076-.307c0 .801.383 1.22.85.931.467-.289.591-.944.274-1.456-.808-1.308-1.124-1.161-1.124.525M217 95.167c0 .458.423.833.941.833s1.173-.375 1.456-.833c.283-.459-.14-.834-.941-.834-.801 0-1.456.375-1.456.834M95 96.393c0 .216.698.661 1.552.989.89.341 1.291.173.941-.393-.587-.951-2.493-1.406-2.493-.596m82.584 1.248c-.527 1.373-.38 1.435.893.378 1.735-1.44 1.916-2.019.63-2.019-.491 0-1.176.739-1.523 1.641m21.875-.574c-.363.586-.389 1.336-.059 1.666.33.33.6.02.6-.689 0-1.02.365-1.003 1.75.084 1.586 1.243 1.621 1.208.378-.378-1.607-2.049-1.795-2.097-2.669-.683m-107.444.624c-.024 1.872 2.04 2.664 3.322 1.275.9-.974.855-1.084-.199-.485-.806.459-1.718.213-2.234-.603-.574-.906-.879-.97-.889-.187M129 98c0 .55.424 1 .943 1 .518 0 1.08 1.878 1.25 4.172.487 6.608 2.807 6.121 2.807-.589 0-5.289-.132-5.583-2.5-5.583-1.375 0-2.5.45-2.5 1m8.116.36c-1.61 1.941.412 3.276 2.428 1.604 2.622-2.176 1.704 1.455-1.013 4.007-3.033 2.85-2.457 4.029 1.969 4.029 3.682 0 5.587-1.646 3.038-2.624-1.196-.459-1.316-.938-.487-1.938.606-.73.955-2.365.776-3.633-.392-2.761-4.827-3.715-6.711-1.445m-76.859 2.403c.093 1.23.523 2.237.956 2.237 1.043 0 .972-1.159-.184-2.987-.739-1.169-.904-1.009-.772.75m149.775 1.176c-.741 1.385-.707 2.144.12 2.655.718.444.886.277.443-.439-.392-.635-.311-1.155.179-1.155.491 0 .893-.675.893-1.5 0-1.995-.387-1.891-1.635.439m3.468.061c-.34.55-.364 1.412-.053 1.915.311.503.101 1.144-.466 1.425-.567.28-.493.406.165.278s1.269-1.219 1.358-2.425c.178-2.413-.069-2.706-1.004-1.193m-138.469 2.5c0 .55.436 1.675.969 2.5.533.825.969 1.05.969.5s-.436-1.675-.969-2.5c-.533-.825-.969-1.05-.969-.5m40.636 1.167c-1.189 1.188-.706 5.056.785 6.293 1.748 1.451 5.136.557 5.952-1.571 1.339-3.488-4.135-7.325-6.737-4.722m55.412 3.666c-.09 2.098 2.098 1.775 2.685-.395.321-1.189.223-1.202-.567-.075-.806 1.151-1.039 1.151-1.497 0-.365-.917-.568-.763-.621.47M73 110.059c0 .582.45.781 1 .441s1-.816 1-1.059-.45-.441-1-.441-1 .477-1 1.059M164.5 112c.34.55 1.041 1 1.559 1s.941-.45.941-1-.702-1-1.559-1-1.281.45-.941 1m26 0c.34.55.816 1 1.059 1s.441-.45.441-1-.477-1-1.059-1-.781.45-.441 1m-129.355 3.325c-.908 1.094-.834 1.688.331 2.655 1.224 1.016 1.619.936 2.145-.435.897-2.337-.981-4.022-2.476-2.22m9.015-.085c-1.725 1.725-1.41 2.76.84 2.76 1.1 0 2-.648 2-1.441 0-2.019-1.461-2.698-2.84-1.319m8.528-.594c-1.374 1.374-.662 3.496 1.062 3.164.963-.186 1.75-.969 1.75-1.74 0-1.579-1.764-2.472-2.812-1.424m8.648.921c-.888 2.315 1.077 3.845 2.592 2.019 1.282-1.543.701-3.586-1.018-3.586-.535 0-1.243.705-1.574 1.567m9 0c-.888 2.315 1.077 3.845 2.592 2.019 1.282-1.543.701-3.586-1.018-3.586-.535 0-1.243.705-1.574 1.567m8.786-.214c-1.216 1.465-.526 2.647 1.545 2.647 1.489 0 1.825-2.578.446-3.43-.487-.301-1.383.051-1.991.783m61.214.214c-.888 2.315 1.077 3.845 2.592 2.019 1.282-1.543.701-3.586-1.018-3.586-.535 0-1.243.705-1.574 1.567m9 0c-.888 2.315 1.077 3.845 2.592 2.019 1.282-1.543.701-3.586-1.018-3.586-.535 0-1.243.705-1.574 1.567m8.786-.214c-1.216 1.465-.526 2.647 1.545 2.647 1.489 0 1.825-2.578.446-3.43-.487-.301-1.383.051-1.991.783m9.038-.113c-1.725 1.725-1.41 2.76.84 2.76 1.1 0 2-.648 2-1.441 0-2.019-1.461-2.698-2.84-1.319M158 116.5c0 .825.45 1.5 1 1.5s1-.675 1-1.5-.45-1.5-1-1.5-1 .675-1 1.5m-106.044 1.053c-.903 1.089-.961 1.842-.201 2.602 1.282 1.282 3.245.28 3.245-1.655 0-2.137-1.635-2.645-3.044-.947M113 117c0 .55.702 1 1.559 1s1.281-.45.941-1c-.34-.55-1.041-1-1.559-1s-.941.45-.941 1m88.688-.354c-1.374 1.374-.662 3.496 1.062 3.164.963-.186 1.75-.969 1.75-1.74 0-1.579-1.764-2.472-2.812-1.424m6.408 5.295c-.838.517-1.117 1.562-.705 2.636.638 1.661.792 1.668 2.353.108 1.925-1.925.599-4.133-1.648-2.744m-161.408.705c-1.374 1.374-.662 3.496 1.062 3.164.962-.186 1.75-.969 1.75-1.74 0-1.579-1.764-2.472-2.812-1.424M150 129.652c-8.465 2.789-9 4.408-9 27.233 0 10.442.439 20.139.975 21.549 2.143 5.637 11.735 8.319 18.058 5.049 4.825-2.495 5.967-6.023 5.967-18.433V154h-12v4c0 3.333.333 4 2 4 1.775 0 2 .667 2 5.929 0 5.968-1.522 9.071-4.449 9.071-3.164 0-3.599-2.698-3.325-20.631l.274-17.869 2.444-.345c3.182-.449 5.056 2.159 5.056 7.036 0 3.777.033 3.809 4 3.809h4v-5.923c0-4.899-.444-6.451-2.564-8.971-3.159-3.754-9.341-5.803-13.436-4.454m27.424 1.196c-6.256 2.914-6.924 5.486-6.924 26.652 0 15.322.263 18.481 1.767 21.233 4.961 9.077 20.084 7.936 23.427-1.768.656-1.906 1.219-8.527 1.25-14.715.046-9.308.315-11.25 1.556-11.25.825 0 1.5-.675 1.5-1.5s-.612-1.5-1.36-1.5c-.912 0-1.546-1.802-1.925-5.474-.844-8.175-4.164-11.988-11.338-13.019-2.675-.384-5.141.031-7.953 1.341m20.738-.29c-1.545.802-1.945 1.458-1.18 1.931.637.393 1.465 1.545 1.84 2.558.643 1.74.799 1.72 2.776-.352 1.916-2.009 1.958-2.329.498-3.774-1.316-1.301-2.007-1.365-3.934-.363m11.284-.471c-.369.598-.21 1.549.354 2.113 1.262 1.262 3.2.196 3.2-1.759 0-1.684-2.574-1.94-3.554-.354M44 131.333c0 2.076 1.184 2.76 2.658 1.536C48.596 131.26 48.307 130 46 130c-1.1 0-2 .6-2 1.333M63 157v27h9.6c9.584 0 9.606-.006 13-3.4 3.303-3.303 3.4-3.629 3.4-11.444 0-7.028-.3-8.394-2.377-10.808l-2.376-2.763 2.064-2.792c2.416-3.267 2.884-13.743.788-17.628-1.898-3.517-7.025-5.165-16.067-5.165H63v27m31 0v27h9v-54h-9v27m14 0v27H117.129l-.315-17.434c-.172-9.589-.033-16.902.311-16.25.344.651 2.562 8.497 4.929 17.434l4.304 16.25H136v-54h-7.947l-.276 14.75-.277 14.75-4-14.749-4-14.748-5.75-.002L108 130v27m107.158-20c0 1.375.227 1.938.504 1.25.278-.687.278-1.812 0-2.5-.277-.687-.504-.125-.504 1.25m16.112-.517c-5.73 2.49-9.301 11.962-6.227 16.517.751 1.113.94.499.734-2.38-.232-3.249.057-3.935 1.771-4.213 1.633-.265 2.392.594 3.742 4.238 1.781 4.804 1.465 6.859-.914 5.946-1.114-.428-1.205-.14-.42 1.326 1.06 1.982 5.93 4.086 9.443 4.079 3.245-.006 8.325-3.562 10.162-7.115 3.399-6.573-.127-14.549-8.105-18.335-3.962-1.88-5.979-1.893-10.186-.063m-21.243 1.984c-.659.795-.921 1.895-.581 2.446.828 1.339 3.554.219 3.554-1.461 0-2.052-1.637-2.594-2.973-.985m27.196.09c-4.414 3.091-1.692 12.443 3.622 12.443 5.216 0 6.993-8.409 2.52-11.927-3.157-2.484-3.315-2.497-6.142-.516m-213.251 1.495c-1.754 3.277-.814 5.181 2.694 5.455 2.38.186 3.287-.218 3.656-1.63.27-1.032.113-1.877-.348-1.877-.462 0-1.125-.9-1.474-2-.822-2.589-3.129-2.562-4.528.052m20.716-1.406c-1.374 1.374-.662 3.496 1.062 3.164.962-.186 1.75-.969 1.75-1.74 0-1.579-1.764-2.472-2.812-1.424M72 145c0 6.638.119 7 2.3 7 3.518 0 4.7-1.91 4.7-7.593 0-5.377-.817-6.407-5.082-6.407-1.708 0-1.918.766-1.918 7m108.667-6.333c-.367.366-.667 8.636-.667 18.377 0 14.263.283 17.946 1.452 18.916 1.995 1.656 5.207.44 5.926-2.243 1.023-3.816.682-31.737-.413-33.783-.996-1.86-4.917-2.649-6.298-1.267M25 142c0 .55.477 1 1.059 1s.781-.45.441-1-.816-1-1.059-1-.441.45-.441 1m217-.031c0 .532-.671.711-1.492.396-1.873-.719-3.186 2.357-1.657 3.886.613.613 1.448.784 1.853.378.406-.406.076-1.191-.733-1.744-1.053-.72-.521-.819 1.867-.347 3.153.623 3.276.543 2.215-1.439-1.2-2.241-2.053-2.711-2.053-1.13M226 143c0 .55.675 1 1.5 1s1.5-.45 1.5-1-.675-1-1.5-1-1.5.45-1.5 1m-181.312 3.646c-1.374 1.374-.662 3.496 1.062 3.164.962-.186 1.75-.969 1.75-1.74 0-1.579-1.764-2.472-2.812-1.424m164.758.441c-.369.598-.21 1.549.354 2.113 1.262 1.262 3.2.196 3.2-1.759 0-1.684-2.574-1.94-3.554-.354m.242 7.559c-1.416 1.415-.615 3.354 1.385 3.354 1.398 0 1.968-.543 1.75-1.667-.357-1.841-2.064-2.759-3.135-1.687m-165.242 1.441c-.873 1.412 1.055 3.34 2.467 2.467 1.586-.98 1.33-3.554-.354-3.554-.793 0-1.743.489-2.113 1.087M72 168.06v8.061l3.75-.311 3.75-.31.3-6.337c.342-7.226-.699-9.163-4.922-9.163H72v8.06m143.195-3.56c.02 1.65.244 2.204.498 1.231.254-.973.237-2.323-.037-3-.274-.677-.481.119-.461 1.769m-170.507-.854c-1.374 1.374-.662 3.496 1.062 3.164.962-.186 1.75-.969 1.75-1.74 0-1.579-1.764-2.472-2.812-1.424m164.758.441c-.369.598-.21 1.549.354 2.113 1.262 1.262 3.2.196 3.2-1.759 0-1.684-2.574-1.94-3.554-.354m-164.35 7.854c-.838.517-1.117 1.562-.705 2.636.638 1.661.792 1.668 2.353.108 1.925-1.925.599-4.133-1.648-2.744m164.35.146c-.369.598-.21 1.549.354 2.113 1.262 1.262 3.2.196 3.2-1.759 0-1.684-2.574-1.94-3.554-.354m-6.559 7.8c-.986.375-1.375 1.24-1 2.226s1.24 1.375 2.226 1 1.375-1.24 1-2.226-1.24-1.375-2.226-1m7.363-.169c-2.017.724-1.433 3.282.75 3.282 1.1 0 2-.648 2-1.441 0-1.739-1.058-2.448-2.75-1.841m-165.562.928c-1.374 1.374-.662 3.496 1.062 3.164.962-.186 1.75-.969 1.75-1.74 0-1.579-1.764-2.472-2.812-1.424m44.516 2.964c-.825.894-.979 1.969-.425 2.96.776 1.386 1.009 1.391 2.125.046.75-.904.921-2.094.425-2.96-.711-1.243-1.013-1.25-2.125-.046m-42.758 5.477c-.873 1.412 1.055 3.34 2.467 2.467 1.586-.98 1.33-3.554-.354-3.554-.793 0-1.743.489-2.113 1.087m161.944 1.339c-.91 2.371.377 4.765 2.357 4.384 2.378-.458 2.378-5.162 0-5.62-.964-.186-2.025.37-2.357 1.236m-12.14 1.236c-.687.278-1.25.98-1.25 1.561s-.787 1.638-1.75 2.349c-1.402 1.036-1.502 1.545-.5 2.561.893.905 1.25.934 1.25.102 0-.64.978-1.688 2.173-2.328l2.173-1.163-2.173 2.763c-4.562 5.799-1.258 9.848 3.976 4.873 3.319-3.155 5.851-7.409 5.851-9.83 0-1.745-4.485-2.193-5.5-.55-.34.55-1.068 1-1.618 1s-.722-.45-.382-1c.652-1.054-.169-1.178-2.25-.338m-144.574 2.74c-.628 1.636.11 2.598 1.991 2.598.733 0 1.333-.9 1.333-2 0-2.274-2.508-2.725-3.324-.598m45.012 1.244c-1.374 1.374-.662 3.496 1.062 3.164.963-.186 1.75-.969 1.75-1.74 0-1.579-1.764-2.472-2.812-1.424m7.988.756c-.628 1.636.11 2.598 1.991 2.598.733 0 1.333-.9 1.333-2 0-2.274-2.508-2.725-3.324-.598m8.77-.315c-.369.598-.21 1.549.354 2.113 1.262 1.262 3.2.196 3.2-1.759 0-1.684-2.574-1.94-3.554-.354m9.242-.441c-1.374 1.374-.662 3.496 1.062 3.164.963-.186 1.75-.969 1.75-1.74 0-1.579-1.764-2.472-2.812-1.424m9 0c-1.374 1.374-.662 3.496 1.062 3.164.963-.186 1.75-.969 1.75-1.74 0-1.579-1.764-2.472-2.812-1.424m8.443.696c-1.224 1.474-.54 2.658 1.536 2.658.733 0 1.333-.9 1.333-2 0-2.307-1.26-2.596-2.869-.658m8.545.06c-.628 1.636.11 2.598 1.991 2.598.733 0 1.333-.9 1.333-2 0-2.274-2.508-2.725-3.324-.598m9.012-.756c-1.374 1.374-.662 3.496 1.062 3.164.963-.186 1.75-.969 1.75-1.74 0-1.579-1.764-2.472-2.812-1.424m9 0c-1.374 1.374-.662 3.496 1.062 3.164.963-.186 1.75-.969 1.75-1.74 0-1.579-1.764-2.472-2.812-1.424m9 0c-1.374 1.374-.662 3.496 1.062 3.164.963-.186 1.75-.969 1.75-1.74 0-1.579-1.764-2.472-2.812-1.424m7.988.756c-.628 1.636.11 2.598 1.991 2.598.733 0 1.333-.9 1.333-2 0-2.274-2.508-2.725-3.324-.598M207 198c0 2.192.131 2.271 2.355 1.417 1.805-.692 1.038-3.417-.962-3.417-.766 0-1.393.9-1.393 2m4.378 5.414c-7.524 3.33-8.841 12.863-1.878 13.604 4.63.492 6.815-.179 9.577-2.941 6.644-6.645.973-14.5-7.699-10.663m2.872 3.248c-1.789.722-1.547 3.338.309 3.338.904 0 1.266.475.861 1.13-.424.685-.152.948.691.667 2.036-.678 2.368-3.797.403-3.797-.897 0-1.354-.45-1.014-1 .668-1.081.622-1.093-1.25-.338m-5 3c-.687.278-1.25.965-1.25 1.528 0 .563.729.744 1.621.402 1.246-.478 1.498-.156 1.093 1.393-.336 1.284-.038 2.015.821 2.015 2.106 0 2.654-1.724 1.258-3.959-1.331-2.132-1.507-2.2-3.543-1.379m-149.654 3.183c-.398.644-.02 1.874.84 2.734.86.86 1.564 1.982 1.564 2.492 0 .511.45.929 1 .929 1.591 0 1.162-2.578-.841-5.052-1.269-1.567-2.065-1.909-2.563-1.103m75.724 6.927c-1.783 1.413-1.939 1.945-.857 2.918 1.572 1.413 2.619.688 1.861-1.288-.296-.771-.077-1.402.486-1.402s1.224.563 1.47 1.25c.245.688.743.977 1.107.643.757-.695-.274-3.904-1.244-3.871-.354.012-1.624.8-2.823 1.75m-16.927.81c.334.87.607 2.185.607 2.923 0 2.45 5.079 7.423 8.564 8.385 4.299 1.187 9.466-.134 12.036-3.076l1.9-2.176-2.473 1.681c-1.438.978-4.413 1.681-7.115 1.681-5.486 0-9.44-2.626-11.547-7.668-1.363-3.264-3.167-4.864-1.972-1.75" fill="#1976D2" fill-rule="evenodd"/></svg>